<?xml version="1.0" encoding="utf-8"?>
<!-- Generator: Adobe Illustrator 24.0.1, SVG Export Plug-In . SVG Version: 6.00 Build 0)  -->
<svg version="1.1" id="图层_1" xmlns="http://www.w3.org/2000/svg" xmlns:xlink="http://www.w3.org/1999/xlink" x="0px" y="0px"
	 viewBox="0 0 1134 976" style="enable-background:new 0 0 1134 976;" xml:space="preserve">
<style type="text/css">
	.st0{fill:#111111;}
	.st1{font-family:'Tensentype-BoDanCaoShu';}
	.st2{font-size:60px;}
	.st3{font-size:29.4198px;}
	.st4{fill-rule:evenodd;clip-rule:evenodd;fill:#88AEFF;}
	.st5{fill-rule:evenodd;clip-rule:evenodd;fill:#A8FFBE;}
	.st6{fill-rule:evenodd;clip-rule:evenodd;fill:#FFE57E;}
	.st7{fill-rule:evenodd;clip-rule:evenodd;fill:#FFB57E;}
	.st8{fill-rule:evenodd;clip-rule:evenodd;fill:#FF7E7E;}
	.st9{fill:none;stroke:#000000;stroke-width:4;stroke-linecap:round;stroke-linejoin:round;stroke-miterlimit:10;}
	.st10{font-size:30px;}
	.st11{fill:#A7A7A7;stroke:#231815;stroke-width:4;stroke-miterlimit:10;}
	
		.st12{fill-rule:evenodd;clip-rule:evenodd;fill:#FFFFFF;stroke:#000000;stroke-width:4;stroke-linecap:round;stroke-linejoin:round;}
	.st13{font-size:20px;}
	.st14{letter-spacing:-3;}
	.st15{letter-spacing:-2;}
	.st16{font-size:15px;}
	.st17{enable-background:new    ;}
</style>
<text transform="matrix(1 0 0 1 843.2036 109.4096)" class="st0 st1 st2">清华制霸</text>
<text id="小五爷园" transform="matrix(1 0 0 1 37 937)" class="st0 st1 st3">小五爷园试验场</text>
<text id="分数" transform="matrix(1 0 0 1 35 883.5577)" class="st0 st1 st2">分数</text>
<g id="等级">
	<rect x="932.1" y="655" class="st4" width="176.2" height="50"/>
	<rect x="932.1" y="605" class="st5" width="176.2" height="50"/>
	<rect x="932.1" y="555" class="st6" width="176.2" height="50"/>
	<rect x="932.1" y="505" class="st7" width="176.2" height="50"/>
	<rect x="932.1" y="455" class="st8" width="176.2" height="50"/>
	<rect x="932.1" y="455" class="st9" width="176.2" height="250"/>
	<text transform="matrix(1 0 0 1 947.6979 489.6172)" class="st1 st10">5 居住</text>
	<text transform="matrix(1 0 0 1 947.7272 540.0001)" class="st1 st10">4 常去</text>
	<text transform="matrix(1 0 0 1 947.7272 590.0001)" class="st1 st10">3 偶尔会去</text>
	<text transform="matrix(1 0 0 1 947.7272 640.0001)" class="st1 st10">2 有时会去</text>
	<text transform="matrix(1 0 0 1 947.7272 690.0001)" class="st1 st10">1 路过</text>
</g>
<g id="地区_1_">
	<polygon id="全区域" class="st11" points="269.7,35.1 269.7,324.4 135.9,473.3 135.9,786.9 292.2,786.9 292.2,948 555.3,948 
		555.3,889 507.6,889 507.6,833.7 442,833.7 442,728.9 361.1,728.9 361.1,695.2 337.2,695.2 337.2,742.9 231.4,742.9 231.4,695.2 
		186.4,695.2 186.4,472.3 249.1,472.3 249.1,438.6 311.9,372.6 384.9,372.6 384.9,198 477.6,198 477.6,145.6 534.9,88.3 674.2,88.3 
		674.2,35.1 	"/>
	<path id="西湖游泳池" class="st12" d="M231.4,742.9h105.8v-47.8H231.4V742.9z"/>
	<path id="系馆区2" class="st12" d="M507.6,889h276.9l110.7-102.3l-110.7-1.6v-38.2H507.6V889z"/>
	<path id="系馆区3" class="st12" d="M432.2,728.9h122v-83.8h-122V728.9z"/>
	<path id="校医院" class="st12" d="M186.4,618.7h62.7V472.3h-62.7V618.7z"/>
	<path id="近春园" class="st12" d="M186.4,695.2h62.7v-76.5h-62.7V695.2z"/>
	<path id="荷塘" class="st12" d="M249.1,695.2h62.7v-76.5h-62.7L249.1,695.2L249.1,695.2z"/>
	<path id="荷园" class="st12" d="M249.1,618.7h62.7v-25.2h-62.7L249.1,618.7L249.1,618.7z"/>
	<path id="水木清华" class="st12" d="M311.9,618.7H405V570h-93.2v48.7H311.9z"/>
	<path id="照澜院" class="st12" d="M442,833.7h112.2V728.9H442V833.7z"/>
	<path id="图书馆总馆" class="st12" d="M384.9,570H464v25.3h70V442.1H385V570H384.9z"/>
	<path id="大礼堂" class="st12" d="M405,618.7h59V570h-59V618.7z"/>
	<path id="清华学堂" class="st12" d="M454.6,644.1h46.5v-48.7h-46.5V644.1z"/>
	<path id="日晷" class="st12" d="M418.6,644.1h36v-25.3h-36V644.1z"/>
	<path id="二教" class="st12" d="M379.2,645.1h39.5v-26.3h-39.5V645.1z"/>
	<path id="工字厅" class="st12" d="M311.9,645.1h67.3v-26.3h-67.3L311.9,645.1L311.9,645.1z"/>
	<path id="熙春园" class="st12" d="M311.9,695.2h41v-50.1h-41V695.2z"/>
	<polygon id="宿舍区" class="st12" points="591.5,346.7 591.5,426.2 533.9,426.2 533.9,409.7 475.1,409.7 475.1,442.1 
		384.9,442.1 384.9,198 509,198 509,346.7 475.1,346.7 475.1,379.8 533.9,379.8 533.9,346.7 	"/>
	<path id="一教" class="st12" d="M405,695.2h27.2v-50.1H405V695.2z"/>
	<path id="招办" class="st12" d="M361.1,728.9H405v-33.7h-43.9V728.9z"/>
	<path id="二校门" class="st12" d="M405,728.9h59v-33.7h-59V728.9z"/>
	<path id="新清华学堂" class="st12" d="M554.2,746.8H642V655h-87.8V746.8z"/>
	<path id="主楼" class="st12" d="M642.1,746.8h142.4V655H642.1V746.8z"/>
	<path id="艺博" class="st12" d="M784.5,786.7h110.7V673.1H784.5V786.7z"/>
	<path id="系馆区1" class="st12" d="M784.5,673.1h110.7V313.7H784.5V673.1z"/>
	<path id="肉夹馍_24_" class="st12" d="M784.5,313.7H865v-40.4h-80.5V313.7z"/>
	<path id="肉夹馍_25_" class="st12" d="M913.8,349h36.6v-75.7h-36.6V349z"/>
	<path id="五金" class="st12" d="M784.5,946.1h81.4v-39.7h-81.4V946.1z"/>
	<path id="综体" class="st12" d="M642.1,655h142.4V555H642.1V655z"/>
	<path id="东操" class="st12" d="M703.6,555h80.9V455h-80.9V555z"/>
	<path id="陈明游泳馆" class="st12" d="M642.1,455h142.4v-94.2H642.1V455z"/>
	<path id="雕塑园" class="st12" d="M707.2,390.5h77.3v-76.8h-77.3V390.5z"/>
	<path id="东区篮球场" class="st12" d="M642.1,505h61.5v-50h-61.5V505z"/>
	<path id="东区排球场" class="st12" d="M642.1,555h61.5v-50h-61.5V555z"/>
	<path id="六教" class="st12" d="M586.7,655H642v-59.6h-55.3V655z"/>
	<path id="三教" class="st12" d="M554.2,655h32.5v-59.6h-32.5V655z"/>
	<path id="五教" class="st12" d="M501.2,619.7h53.1v-24.3h-53.1L501.2,619.7L501.2,619.7z"/>
	<path id="四教" class="st12" d="M501.2,644.6h53.1v-24.3h-53.1L501.2,644.6L501.2,644.6z"/>
	<path id="文图" class="st12" d="M533.9,595.4H642v-57.9H533.9V595.4z"/>
	<path id="南区宿舍区" class="st12" d="M533.9,537.4H642v-70.7H533.9V537.4z"/>
	<rect id="清芬" x="533.9" y="426.2" class="st12" width="57.6" height="40.5"/>
	<path id="苏世民书院" class="st12" d="M591.5,466.7h50.6v-153h-50.6V466.7z"/>
	<rect id="C楼" x="509" y="198" class="st12" width="82.5" height="148.7"/>
	<rect id="丁香" x="475.1" y="346.7" class="st12" width="58.8" height="33.1"/>
	<rect id="听涛" x="475.1" y="409.7" class="st12" width="58.8" height="32.4"/>
	<path id="空地" class="st12" d="M546.8,313.7h44.7v-80.8h-44.7V313.7z"/>
	<path id="西操" class="st12" d="M311.9,570h73V442h-73V570z"/>
	<path id="观畴" class="st12" d="M311.9,442.1h73v-69.4h-73V442.1z"/>
	<path id="系馆区4" class="st12" d="M249.1,593.5h62.7V372.6l-62.7,66L249.1,593.5L249.1,593.5z"/>
	<path id="西体" class="st12" d="M286.3,524.8h25.6v-43.3h-25.6V524.8z"/>
	<path id="足球场" class="st12" d="M642.1,360.8h65.1v-47.1h-65.1V360.8z"/>
	<path id="宿舍区1" class="st12" d="M784.5,313.7h110.7v-84.8L813,144v54h-28.5V313.7z"/>
	<rect id="紫操" x="591.5" y="198" class="st12" width="83.1" height="115.7"/>
	<rect id="紫荆网球场" x="674.6" y="198" class="st12" width="109.8" height="57.9"/>
	<rect id="紫荆篮球场" x="674.6" y="255.9" class="st12" width="109.8" height="57.9"/>
	<rect id="宿舍区2" x="477.6" y="145.6" class="st12" width="281.4" height="52.4"/>
	<rect id="紫荆" x="591.5" y="88.3" class="st12" width="82.7" height="57.3"/>
	<rect id="玉树" x="674.6" y="88.3" class="st12" width="84.4" height="57.3"/>
	<polygon id="气膜馆" class="st12" points="707.5,35.1 759,88.3 674.6,88.3 674.6,35.1 	"/>
	<polygon id="芝兰" class="st12" points="813,144 813,198 759,198 759,88.3 	"/>
	<polygon id="桃李" class="st12" points="591.6,88.3 591.6,145.6 477.6,145.6 534.9,88.3 	"/>
</g>
<g id="地名">
	<text transform="matrix(1 0 0 1 288.9007 496.4907)" class="st0 st1 st13">西</text>
	<text transform="matrix(1 0 0 1 288.9007 516.4907)" class="st0 st1 st13">体</text>
	<text transform="matrix(1 0 0 1 203.3906 524.2982)" class="st0 st1 st10">校</text>
	<text transform="matrix(1 0 0 1 203.3906 554.2982)" class="st0 st1 st10">医</text>
	<text transform="matrix(1 0 0 1 203.3906 584.2982)" class="st0 st1 st10">院</text>
	<text transform="matrix(1 0 0 1 253.6276 474.2986)" class="st0 st1 st10">系</text>
	<text transform="matrix(1 0 0 1 253.6276 504.2986)" class="st0 st1 st10">馆</text>
	<text transform="matrix(1 0 0 1 253.6276 534.2986)" class="st0 st1 st10">区</text>
	<text transform="matrix(1 0 0 1 189.2801 650.1251)" class="st0 st1 st10 st14">近春</text>
	<text transform="matrix(1 0 0 1 202.7801 680.1251)" class="st0 st1 st10 st14">园</text>
	<text transform="matrix(1 0 0 1 259.9934 613.5397)" class="st0 st1 st13 st15">荷园</text>
	<text transform="matrix(1 0 0 1 252.0115 670.1097)" class="st0 st1 st10 st14">荷塘</text>
	<text transform="matrix(1 0 0 1 317.2019 638.0002)" class="st0 st1 st13 st15">工字厅</text>
	<text transform="matrix(1 0 0 1 379.8912 638.0002)" class="st0 st1 st13 st15">二教</text>
	<text transform="matrix(1 0 0 1 417.6391 638.0002)" class="st0 st1 st13 st15">日晷</text>
	<text transform="matrix(1 0 0 1 458.907 614.431)" class="st0 st1 st13 st15">清华</text>
	<text transform="matrix(1 0 0 1 458.907 634.431)" class="st0 st1 st13 st15">学堂</text>
	<text transform="matrix(1 0 0 1 390.4156 515.9224)" class="st0 st1 st10 st14">图书馆总馆</text>
	<text transform="matrix(1 0 0 1 333.3921 494.2986)" class="st0 st1 st10 st14">西</text>
	<text transform="matrix(1 0 0 1 333.3921 524.2986)" class="st0 st1 st10 st14">操</text>
	<text transform="matrix(1 0 0 1 322.5801 601.679)" class="st0 st1 st13 st15">水木清华</text>
	<text transform="matrix(1 0 0 1 408.6606 590.0003)" class="st0 st1 st13 st15">大礼堂</text>
	<text transform="matrix(1 0 0 1 508.7036 613.5394)" class="st0 st1 st13 st15">五教</text>
	<text transform="matrix(1 0 0 1 508.7037 638.9999)" class="st0 st1 st13 st15">四教</text>
	<text transform="matrix(1 0 0 1 560.4908 617.5199)" class="st0 st1 st13 st15">三</text>
	<text transform="matrix(1 0 0 1 560.4908 637.5199)" class="st0 st1 st13 st15">教</text>
	<text transform="matrix(1 0 0 1 595.405 631.3768)" class="st0 st1 st13 st15">六教</text>
	<text transform="matrix(1 0 0 1 684.7609 617.1138)" class="st0 st1 st10 st14">综体</text>
	<text transform="matrix(1 0 0 1 684.761 712.0217)" class="st0 st1 st10 st14">主楼</text>
	<text transform="matrix(1 0 0 1 558.202 696.0479)" class="st0 st1 st10 st14">新清华</text>
	<text transform="matrix(1 0 0 1 571.702 726.0479)" class="st0 st1 st10 st14">学堂</text>
	<text transform="matrix(1 0 0 1 451.233 682.5413)" class="st0 st1 st10 st14">系馆区</text>
	<text transform="matrix(1 0 0 1 632.22 830.0656)" class="st0 st1 st10 st14">系馆区</text>
	<text transform="matrix(1 0 0 1 796.6344 937.0001)" class="st0 st1 st10 st14">五金</text>
	<text transform="matrix(1 0 0 1 824.7283 467.4583)" class="st0 st1 st10">系</text>
	<text transform="matrix(1 0 0 1 824.7283 497.4583)" class="st0 st1 st10">馆</text>
	<text transform="matrix(1 0 0 1 824.7283 527.4583)" class="st0 st1 st10">区</text>
	<text transform="matrix(1 0 0 1 811.4771 742.9199)" class="st0 st1 st10">艺博</text>
	<text transform="matrix(1 0 0 1 454.6469 792.5988)" class="st0 st1 st10">照澜院</text>
	<text transform="matrix(1 0 0 1 405.0375 719.0439)" class="st0 st1 st13 st15">二校门</text>
	<text transform="matrix(1 0 0 1 364.2883 719.0443)" class="st0 st1 st13 st15">招办</text>
	<text transform="matrix(1 0 0 1 368.4848 664.674)" class="st0 st1 st13 st15">甲</text>
	<text transform="matrix(1 0 0 1 368.4848 684.674)" class="st0 st1 st13 st15">所</text>
	<text transform="matrix(1 0 0 1 408.6607 664.6742)" class="st0 st1 st13 st15">一</text>
	<text transform="matrix(1 0 0 1 408.6607 684.6742)" class="st0 st1 st13 st15">教</text>
	<text transform="matrix(1 0 0 1 314.5289 664.6742)" class="st0 st1 st13 st15">熙春</text>
	<text transform="matrix(1 0 0 1 323.5289 684.6742)" class="st0 st1 st13 st15">园</text>
	<text transform="matrix(1 0 0 1 238.2567 726.4498)" class="st0 st1 st13 st15">西湖游泳池</text>
	<text transform="matrix(1 0 0 1 319.8919 418.7755)" class="st0 st1 st10 st14">观畴</text>
	<text transform="matrix(1 0 0 1 476.0049 436.739)" class="st0 st1 st10 st14">听涛</text>
	<text transform="matrix(1 0 0 1 476.005 372.6182)" class="st0 st1 st10 st14">丁香</text>
	<text transform="matrix(1 0 0 1 534.215 455.9998)" class="st0 st1 st10 st14">清芬</text>
	<text transform="matrix(1 0 0 1 518.6364 273.3139)" class="st0 st1 st10 st14">C</text>
	<text transform="matrix(1 0 0 1 512.7364 298.4389)" class="st0 st1 st10 st14">楼</text>
	<text transform="matrix(1 0 0 1 405.7439 288.9007)" class="st0 st1 st10 st14">宿舍区</text>
	<text transform="matrix(1 0 0 1 591.0619 182.256)" class="st0 st1 st10 st14">宿舍区</text>
	<text transform="matrix(1 0 0 1 797.7798 265.3372)" class="st0 st1 st10 st14">宿舍区</text>
	<text transform="matrix(1 0 0 1 604.5618 265.337)" class="st0 st1 st10 st14">紫操</text>
	<text transform="matrix(1 0 0 1 683.5333 293.5198)" class="st0 st1 st13 st15">紫荆篮球场</text>
	<text transform="matrix(1 0 0 1 683.5334 232.8983)" class="st0 st1 st13 st15">紫荆网球场</text>
	<text transform="matrix(1 0 0 1 655.6138 473.3416)" class="st0 st1 st13 st15">东区</text>
	<text transform="matrix(1 0 0 1 646.6138 493.3416)" class="st0 st1 st13 st15">篮球场</text>
	<text transform="matrix(1 0 0 1 655.2193 523.96)" class="st0 st1 st13 st15">东区</text>
	<text transform="matrix(1 0 0 1 646.2193 543.96)" class="st0 st1 st13 st15">排球场</text>
	<text transform="matrix(1 0 0 1 717.306 513.9265)" class="st0 st1 st10 st14">东操</text>
	<text transform="matrix(1 0 0 1 560.9499 496.0002)" class="st0 st1 st10 st14">南区</text>
	<text transform="matrix(1 0 0 1 547.4499 526.0002)" class="st0 st1 st10 st14">宿舍区</text>
	<text transform="matrix(1 0 0 1 558.242 576.3682)" class="st0 st1 st10 st14">文图</text>
	<text transform="matrix(1 0 0 1 646.6135 344.8067)" class="st0 st1 st13 st15">足球场</text>
	<text transform="matrix(1 0 0 1 644.261 431.8824)" class="st0 st1 st10 st14">陈明游泳馆</text>
	<text transform="matrix(1 0 0 1 735.8057 338.1398)" class="st0 st1 st13 st15">雕</text>
	<text transform="matrix(1 0 0 1 735.8057 358.1398)" class="st0 st1 st13 st15">塑</text>
	<text transform="matrix(1 0 0 1 735.8057 378.1398)" class="st0 st1 st13 st15">园</text>
	<text transform="matrix(1 0 0 1 917.1271 300.0709)" class="st0 st1 st10 st14">双</text>
	<text transform="matrix(1 0 0 1 917.1271 330.0709)" class="st0 st1 st10 st14">清</text>
	<text transform="matrix(1 0 0 1 769.4532 150.2207)" class="st0 st1 st10 st14">芝</text>
	<text transform="matrix(1 0 0 1 769.4532 180.2207)" class="st0 st1 st10 st14">兰</text>
	<text transform="matrix(1 0 0 1 678.8392 80.0997)" class="st0 st1 st13 st15">气膜馆</text>
	<text transform="matrix(1 0 0 1 521.7452 129.4147)" class="st0 st1 st10 st14">桃李</text>
	<text transform="matrix(1 0 0 1 604.5618 129.4146)" class="st0 st1 st10 st14">紫荆</text>
	<text transform="matrix(1 0 0 1 688.32 129.4145)" class="st0 st1 st10 st14">玉树</text>
	<text transform="matrix(1 0 0 1 17.9011 78.5131)" class="st0 st1 st16">本地图仅供娱乐，空间有限无法</text>
	<text transform="matrix(1 0 0 1 17.9011 108.5131)" class="st0 st1 st16">涵盖和准确还原所有地点，请谅解</text>
	<text transform="matrix(1 0 0 1 606.8342 349.0002)" class="st17"><tspan x="0" y="0" class="st0 st1 st13 st15">苏</tspan><tspan x="0" y="24" class="st0 st1 st13 st15">世</tspan><tspan x="0" y="48" class="st0 st1 st13 st15">民</tspan><tspan x="0" y="72" class="st0 st1 st13 st15">书</tspan><tspan x="0" y="96" class="st0 st1 st13 st15">院</tspan></text>
</g>
</svg>
