<?xml version="1.0" encoding="utf-8"?>
<!-- Generator: Adobe Illustrator 24.0.1, SVG Export Plug-In . SVG Version: 6.00 Build 0)  -->
<svg version="1.1" id="图层_1" xmlns="http://www.w3.org/2000/svg" xmlns:xlink="http://www.w3.org/1999/xlink" x="0px" y="0px"
	 viewBox="0 0 1134 976" enable-background="new 0 0 1134 976" xml:space="preserve">
<text transform="matrix(1 0 0 1 843.2036 109.4096)" fill="#111111" font-family="'FZSEJW--GB1-0'" font-size="60px">清华制霸</text>
<text id="小五爷园" transform="matrix(1 0 0 1 37 937)" fill="#111111" font-family="'FZSEJW--GB1-0'" font-size="29.4198px">小五爷园试验场</text>
<text id="分数" transform="matrix(1 0 0 1 35 883.5577)" fill="#111111" font-family="'FZSEJW--GB1-0'" font-size="60px">分数</text>
<g id="等级">
	<rect x="932.1" y="655" fill-rule="evenodd" clip-rule="evenodd" fill="#88AEFF" width="176.2" height="50"/>
	<rect x="932.1" y="605" fill-rule="evenodd" clip-rule="evenodd" fill="#A8FFBE" width="176.2" height="50"/>
	<rect x="932.1" y="555" fill-rule="evenodd" clip-rule="evenodd" fill="#FFE57E" width="176.2" height="50"/>
	<rect x="932.1" y="505" fill-rule="evenodd" clip-rule="evenodd" fill="#FFB57E" width="176.2" height="50"/>
	<rect x="932.1" y="455" fill-rule="evenodd" clip-rule="evenodd" fill="#FF7E7E" width="176.2" height="50"/>
	
		<rect x="932.1" y="455" fill="none" stroke="#000000" stroke-width="4" stroke-linecap="round" stroke-linejoin="round" stroke-miterlimit="10" width="176.2" height="250"/>
	<text transform="matrix(1 0 0 1 947.6979 489.6172)" font-family="'FZSEJW--GB1-0'" font-size="30px">5 居住</text>
	<text transform="matrix(1 0 0 1 947.7272 540.0001)" font-family="'FZSEJW--GB1-0'" font-size="30px">4 常去</text>
	<text transform="matrix(1 0 0 1 947.7272 590.0001)" font-family="'FZSEJW--GB1-0'" font-size="30px">3 偶尔会去</text>
	<text transform="matrix(1 0 0 1 947.7272 640.0001)" font-family="'FZSEJW--GB1-0'" font-size="30px">2 有时会去</text>
	<text transform="matrix(1 0 0 1 947.7272 690.0001)" font-family="'FZSEJW--GB1-0'" font-size="30px">1 路过</text>
</g>
<g id="地区_1_">
	<polygon id="全区域" fill="#A7A7A7" stroke="#231815" stroke-width="4" stroke-miterlimit="10" points="269.7,35.1 269.7,324.4 
		135.9,473.3 135.9,786.9 292.2,786.9 292.2,948 555.3,948 555.3,889 507.6,889 507.6,833.7 442,833.7 442,728.9 361.1,728.9 
		361.1,695.2 337.2,695.2 337.2,742.9 231.4,742.9 231.4,695.2 186.4,695.2 186.4,472.3 249.1,472.3 249.1,438.6 311.9,372.6 
		384.9,372.6 384.9,198 477.6,198 477.6,145.6 534.9,88.3 674.2,88.3 674.2,35.1 	"/>
	
		<path id="西湖游泳池" fill-rule="evenodd" clip-rule="evenodd" fill="#FFFFFF" stroke="#000000" stroke-width="4" stroke-linecap="round" stroke-linejoin="round" d="
		M231.4,742.9h105.8v-47.8H231.4V742.9z"/>
	
		<path id="系馆区2" fill-rule="evenodd" clip-rule="evenodd" fill="#FFFFFF" stroke="#000000" stroke-width="4" stroke-linecap="round" stroke-linejoin="round" d="
		M507.6,889h276.9l110.7-102.3l-110.7-1.6v-38.2H507.6V889z"/>
	
		<path id="系馆区3" fill-rule="evenodd" clip-rule="evenodd" fill="#FFFFFF" stroke="#000000" stroke-width="4" stroke-linecap="round" stroke-linejoin="round" d="
		M432.2,728.9h122v-83.8h-122V728.9z"/>
	
		<path id="校医院" fill-rule="evenodd" clip-rule="evenodd" fill="#FFFFFF" stroke="#000000" stroke-width="4" stroke-linecap="round" stroke-linejoin="round" d="
		M186.4,618.7h62.7V472.3h-62.7V618.7z"/>
	
		<path id="近春园" fill-rule="evenodd" clip-rule="evenodd" fill="#FFFFFF" stroke="#000000" stroke-width="4" stroke-linecap="round" stroke-linejoin="round" d="
		M186.4,695.2h62.7v-76.5h-62.7V695.2z"/>
	
		<path id="荷塘" fill-rule="evenodd" clip-rule="evenodd" fill="#FFFFFF" stroke="#000000" stroke-width="4" stroke-linecap="round" stroke-linejoin="round" d="
		M249.1,695.2h62.7v-76.5h-62.7L249.1,695.2L249.1,695.2z"/>
	
		<path id="荷园" fill-rule="evenodd" clip-rule="evenodd" fill="#FFFFFF" stroke="#000000" stroke-width="4" stroke-linecap="round" stroke-linejoin="round" d="
		M249.1,618.7h62.7v-25.2h-62.7L249.1,618.7L249.1,618.7z"/>
	
		<path id="水木清华" fill-rule="evenodd" clip-rule="evenodd" fill="#FFFFFF" stroke="#000000" stroke-width="4" stroke-linecap="round" stroke-linejoin="round" d="
		M311.9,618.7H405V570h-93.2v48.7H311.9z"/>
	
		<path id="照澜院" fill-rule="evenodd" clip-rule="evenodd" fill="#FFFFFF" stroke="#000000" stroke-width="4" stroke-linecap="round" stroke-linejoin="round" d="
		M442,833.7h112.2V728.9H442V833.7z"/>
	
		<path id="图书馆总馆" fill-rule="evenodd" clip-rule="evenodd" fill="#FFFFFF" stroke="#000000" stroke-width="4" stroke-linecap="round" stroke-linejoin="round" d="
		M384.9,570H464v25.3h70V442.1H385V570H384.9z"/>
	
		<path id="大礼堂" fill-rule="evenodd" clip-rule="evenodd" fill="#FFFFFF" stroke="#000000" stroke-width="4" stroke-linecap="round" stroke-linejoin="round" d="
		M405,618.7h59V570h-59V618.7z"/>
	
		<path id="清华学堂" fill-rule="evenodd" clip-rule="evenodd" fill="#FFFFFF" stroke="#000000" stroke-width="4" stroke-linecap="round" stroke-linejoin="round" d="
		M454.6,644.1h46.5v-48.7h-46.5V644.1z"/>
	
		<path id="日晷" fill-rule="evenodd" clip-rule="evenodd" fill="#FFFFFF" stroke="#000000" stroke-width="4" stroke-linecap="round" stroke-linejoin="round" d="
		M418.6,644.1h36v-25.3h-36V644.1z"/>
	
		<path id="二教" fill-rule="evenodd" clip-rule="evenodd" fill="#FFFFFF" stroke="#000000" stroke-width="4" stroke-linecap="round" stroke-linejoin="round" d="
		M379.2,645.1h39.5v-26.3h-39.5V645.1z"/>
	
		<path id="工字厅" fill-rule="evenodd" clip-rule="evenodd" fill="#FFFFFF" stroke="#000000" stroke-width="4" stroke-linecap="round" stroke-linejoin="round" d="
		M311.9,645.1h67.3v-26.3h-67.3L311.9,645.1L311.9,645.1z"/>
	
		<path id="熙春园" fill-rule="evenodd" clip-rule="evenodd" fill="#FFFFFF" stroke="#000000" stroke-width="4" stroke-linecap="round" stroke-linejoin="round" d="
		M311.9,695.2h41v-50.1h-41V695.2z"/>
	
		<polygon id="宿舍区" fill-rule="evenodd" clip-rule="evenodd" fill="#FFFFFF" stroke="#000000" stroke-width="4" stroke-linecap="round" stroke-linejoin="round" points="
		591.5,346.7 591.5,426.2 533.9,426.2 533.9,409.7 475.1,409.7 475.1,442.1 384.9,442.1 384.9,198 509,198 509,346.7 475.1,346.7 
		475.1,379.8 533.9,379.8 533.9,346.7 	"/>
	
		<path id="一教" fill-rule="evenodd" clip-rule="evenodd" fill="#FFFFFF" stroke="#000000" stroke-width="4" stroke-linecap="round" stroke-linejoin="round" d="
		M405,695.2h27.2v-50.1H405V695.2z"/>
	
		<path id="招办" fill-rule="evenodd" clip-rule="evenodd" fill="#FFFFFF" stroke="#000000" stroke-width="4" stroke-linecap="round" stroke-linejoin="round" d="
		M361.1,728.9H405v-33.7h-43.9V728.9z"/>
	
		<path id="二校门" fill-rule="evenodd" clip-rule="evenodd" fill="#FFFFFF" stroke="#000000" stroke-width="4" stroke-linecap="round" stroke-linejoin="round" d="
		M405,728.9h59v-33.7h-59V728.9z"/>
	
		<path id="新清华学堂" fill-rule="evenodd" clip-rule="evenodd" fill="#FFFFFF" stroke="#000000" stroke-width="4" stroke-linecap="round" stroke-linejoin="round" d="
		M554.2,746.8H642V655h-87.8V746.8z"/>
	
		<path id="主楼" fill-rule="evenodd" clip-rule="evenodd" fill="#FFFFFF" stroke="#000000" stroke-width="4" stroke-linecap="round" stroke-linejoin="round" d="
		M642.1,746.8h142.4V655H642.1V746.8z"/>
	
		<path id="艺博" fill-rule="evenodd" clip-rule="evenodd" fill="#FFFFFF" stroke="#000000" stroke-width="4" stroke-linecap="round" stroke-linejoin="round" d="
		M784.5,786.7h110.7V673.1H784.5V786.7z"/>
	
		<path id="系馆区1" fill-rule="evenodd" clip-rule="evenodd" fill="#FFFFFF" stroke="#000000" stroke-width="4" stroke-linecap="round" stroke-linejoin="round" d="
		M784.5,673.1h110.7V313.7H784.5V673.1z"/>
	
		<path id="肉夹馍_24_" fill-rule="evenodd" clip-rule="evenodd" fill="#FFFFFF" stroke="#000000" stroke-width="4" stroke-linecap="round" stroke-linejoin="round" d="
		M784.5,313.7H865v-40.4h-80.5V313.7z"/>
	
		<path id="肉夹馍_25_" fill-rule="evenodd" clip-rule="evenodd" fill="#FFFFFF" stroke="#000000" stroke-width="4" stroke-linecap="round" stroke-linejoin="round" d="
		M913.8,349h36.6v-75.7h-36.6V349z"/>
	
		<path id="五金" fill-rule="evenodd" clip-rule="evenodd" fill="#FFFFFF" stroke="#000000" stroke-width="4" stroke-linecap="round" stroke-linejoin="round" d="
		M784.5,946.1h81.4v-39.7h-81.4V946.1z"/>
	
		<path id="综体" fill-rule="evenodd" clip-rule="evenodd" fill="#FFFFFF" stroke="#000000" stroke-width="4" stroke-linecap="round" stroke-linejoin="round" d="
		M642.1,655h142.4V555H642.1V655z"/>
	
		<path id="东操" fill-rule="evenodd" clip-rule="evenodd" fill="#FFFFFF" stroke="#000000" stroke-width="4" stroke-linecap="round" stroke-linejoin="round" d="
		M703.6,555h80.9V455h-80.9V555z"/>
	
		<path id="陈明游泳馆" fill-rule="evenodd" clip-rule="evenodd" fill="#FFFFFF" stroke="#000000" stroke-width="4" stroke-linecap="round" stroke-linejoin="round" d="
		M642.1,455h142.4v-94.2H642.1V455z"/>
	
		<path id="雕塑园" fill-rule="evenodd" clip-rule="evenodd" fill="#FFFFFF" stroke="#000000" stroke-width="4" stroke-linecap="round" stroke-linejoin="round" d="
		M707.2,390.5h77.3v-76.8h-77.3V390.5z"/>
	
		<path id="东区篮球场" fill-rule="evenodd" clip-rule="evenodd" fill="#FFFFFF" stroke="#000000" stroke-width="4" stroke-linecap="round" stroke-linejoin="round" d="
		M642.1,505h61.5v-50h-61.5V505z"/>
	
		<path id="东区排球场" fill-rule="evenodd" clip-rule="evenodd" fill="#FFFFFF" stroke="#000000" stroke-width="4" stroke-linecap="round" stroke-linejoin="round" d="
		M642.1,555h61.5v-50h-61.5V555z"/>
	
		<path id="六教" fill-rule="evenodd" clip-rule="evenodd" fill="#FFFFFF" stroke="#000000" stroke-width="4" stroke-linecap="round" stroke-linejoin="round" d="
		M586.7,655H642v-59.6h-55.3V655z"/>
	
		<path id="三教" fill-rule="evenodd" clip-rule="evenodd" fill="#FFFFFF" stroke="#000000" stroke-width="4" stroke-linecap="round" stroke-linejoin="round" d="
		M554.2,655h32.5v-59.6h-32.5V655z"/>
	
		<path id="五教" fill-rule="evenodd" clip-rule="evenodd" fill="#FFFFFF" stroke="#000000" stroke-width="4" stroke-linecap="round" stroke-linejoin="round" d="
		M501.2,619.7h53.1v-24.3h-53.1L501.2,619.7L501.2,619.7z"/>
	
		<path id="四教" fill-rule="evenodd" clip-rule="evenodd" fill="#FFFFFF" stroke="#000000" stroke-width="4" stroke-linecap="round" stroke-linejoin="round" d="
		M501.2,644.6h53.1v-24.3h-53.1L501.2,644.6L501.2,644.6z"/>
	
		<path id="文图" fill-rule="evenodd" clip-rule="evenodd" fill="#FFFFFF" stroke="#000000" stroke-width="4" stroke-linecap="round" stroke-linejoin="round" d="
		M533.9,595.4H642v-57.9H533.9V595.4z"/>
	
		<path id="南区宿舍区" fill-rule="evenodd" clip-rule="evenodd" fill="#FFFFFF" stroke="#000000" stroke-width="4" stroke-linecap="round" stroke-linejoin="round" d="
		M533.9,537.4H642v-70.7H533.9V537.4z"/>
	
		<rect id="清芬" x="533.9" y="426.2" fill-rule="evenodd" clip-rule="evenodd" fill="#FFFFFF" stroke="#000000" stroke-width="4" stroke-linecap="round" stroke-linejoin="round" width="57.6" height="40.5"/>
	
		<path id="苏世民书院" fill-rule="evenodd" clip-rule="evenodd" fill="#FFFFFF" stroke="#000000" stroke-width="4" stroke-linecap="round" stroke-linejoin="round" d="
		M591.5,466.7h50.6v-153h-50.6V466.7z"/>
	
		<rect id="C楼" x="509" y="198" fill-rule="evenodd" clip-rule="evenodd" fill="#FFFFFF" stroke="#000000" stroke-width="4" stroke-linecap="round" stroke-linejoin="round" width="82.5" height="148.7"/>
	
		<rect id="丁香" x="475.1" y="346.7" fill-rule="evenodd" clip-rule="evenodd" fill="#FFFFFF" stroke="#000000" stroke-width="4" stroke-linecap="round" stroke-linejoin="round" width="58.8" height="33.1"/>
	
		<rect id="听涛" x="475.1" y="409.7" fill-rule="evenodd" clip-rule="evenodd" fill="#FFFFFF" stroke="#000000" stroke-width="4" stroke-linecap="round" stroke-linejoin="round" width="58.8" height="32.4"/>
	
		<path id="空地" fill-rule="evenodd" clip-rule="evenodd" fill="#FFFFFF" stroke="#000000" stroke-width="4" stroke-linecap="round" stroke-linejoin="round" d="
		M546.8,313.7h44.7v-80.8h-44.7V313.7z"/>
	
		<path id="西操" fill-rule="evenodd" clip-rule="evenodd" fill="#FFFFFF" stroke="#000000" stroke-width="4" stroke-linecap="round" stroke-linejoin="round" d="
		M311.9,570h73V442h-73V570z"/>
	
		<path id="观畴" fill-rule="evenodd" clip-rule="evenodd" fill="#FFFFFF" stroke="#000000" stroke-width="4" stroke-linecap="round" stroke-linejoin="round" d="
		M311.9,442.1h73v-69.4h-73V442.1z"/>
	
		<path id="系馆区4" fill-rule="evenodd" clip-rule="evenodd" fill="#FFFFFF" stroke="#000000" stroke-width="4" stroke-linecap="round" stroke-linejoin="round" d="
		M249.1,593.5h62.7V372.6l-62.7,66L249.1,593.5L249.1,593.5z"/>
	
		<path id="西体" fill-rule="evenodd" clip-rule="evenodd" fill="#FFFFFF" stroke="#000000" stroke-width="4" stroke-linecap="round" stroke-linejoin="round" d="
		M286.3,524.8h25.6v-43.3h-25.6V524.8z"/>
	
		<path id="足球场" fill-rule="evenodd" clip-rule="evenodd" fill="#FFFFFF" stroke="#000000" stroke-width="4" stroke-linecap="round" stroke-linejoin="round" d="
		M642.1,360.8h65.1v-47.1h-65.1V360.8z"/>
	
		<path id="宿舍区1" fill-rule="evenodd" clip-rule="evenodd" fill="#FFFFFF" stroke="#000000" stroke-width="4" stroke-linecap="round" stroke-linejoin="round" d="
		M784.5,313.7h110.7v-84.8L813,144v54h-28.5V313.7z"/>
	
		<rect id="紫操" x="591.5" y="198" fill-rule="evenodd" clip-rule="evenodd" fill="#FFFFFF" stroke="#000000" stroke-width="4" stroke-linecap="round" stroke-linejoin="round" width="83.1" height="115.7"/>
	
		<rect id="紫荆网球场" x="674.6" y="198" fill-rule="evenodd" clip-rule="evenodd" fill="#FFFFFF" stroke="#000000" stroke-width="4" stroke-linecap="round" stroke-linejoin="round" width="109.8" height="57.9"/>
	
		<rect id="紫荆篮球场" x="674.6" y="255.9" fill-rule="evenodd" clip-rule="evenodd" fill="#FFFFFF" stroke="#000000" stroke-width="4" stroke-linecap="round" stroke-linejoin="round" width="109.8" height="57.9"/>
	
		<rect id="宿舍区2" x="477.6" y="145.6" fill-rule="evenodd" clip-rule="evenodd" fill="#FFFFFF" stroke="#000000" stroke-width="4" stroke-linecap="round" stroke-linejoin="round" width="281.4" height="52.4"/>
	
		<rect id="紫荆" x="591.5" y="88.3" fill-rule="evenodd" clip-rule="evenodd" fill="#FFFFFF" stroke="#000000" stroke-width="4" stroke-linecap="round" stroke-linejoin="round" width="82.7" height="57.3"/>
	
		<rect id="玉树" x="674.6" y="88.3" fill-rule="evenodd" clip-rule="evenodd" fill="#FFFFFF" stroke="#000000" stroke-width="4" stroke-linecap="round" stroke-linejoin="round" width="84.4" height="57.3"/>
	
		<polygon id="气膜馆" fill-rule="evenodd" clip-rule="evenodd" fill="#FFFFFF" stroke="#000000" stroke-width="4" stroke-linecap="round" stroke-linejoin="round" points="
		707.5,35.1 759,88.3 674.6,88.3 674.6,35.1 	"/>
	
		<polygon id="芝兰" fill-rule="evenodd" clip-rule="evenodd" fill="#FFFFFF" stroke="#000000" stroke-width="4" stroke-linecap="round" stroke-linejoin="round" points="
		813,144 813,198 759,198 759,88.3 	"/>
	
		<polygon id="桃李" fill-rule="evenodd" clip-rule="evenodd" fill="#FFFFFF" stroke="#000000" stroke-width="4" stroke-linecap="round" stroke-linejoin="round" points="
		591.6,88.3 591.6,145.6 477.6,145.6 534.9,88.3 	"/>
	
		<path id="甲所" fill-rule="evenodd" clip-rule="evenodd" fill="#FFFFFF" stroke="#000000" stroke-width="4" stroke-linecap="round" stroke-linejoin="round" d="
		M352.9,695.1H405v-50h-52.1V695.1z"/>
	
		<path id="西湖游泳池_1_" fill-rule="evenodd" clip-rule="evenodd" fill="#FFFFFF" stroke="#000000" stroke-width="4" stroke-linecap="round" stroke-linejoin="round" d="
		M231.4,742.9h105.8V696H231.4V742.9z"/>
	<polygon id="AAA" fill="#A7A7A7" stroke="#231815" stroke-width="4" stroke-miterlimit="10" points="674.6,35.1 674.6,88.3 
		759,88.3 707.5,35.1 	"/>
	
		<rect id="情人坡" x="459.5" y="442.3" fill-rule="evenodd" clip-rule="evenodd" fill="#FFFFFF" stroke="#000000" stroke-width="4" stroke-linecap="round" stroke-linejoin="round" width="74.5" height="51.1"/>
</g>
<g id="地名">
	<text transform="matrix(1 0 0 1 288.9007 496.4907)" fill="#111111" font-family="'FZSEJW--GB1-0'" font-size="20px">西</text>
	<text transform="matrix(1 0 0 1 288.9007 516.4907)" fill="#111111" font-family="'FZSEJW--GB1-0'" font-size="20px">体</text>
	<text transform="matrix(1 0 0 1 203.3906 524.2982)" fill="#111111" font-family="'FZSEJW--GB1-0'" font-size="30px">校</text>
	<text transform="matrix(1 0 0 1 203.3906 554.2982)" fill="#111111" font-family="'FZSEJW--GB1-0'" font-size="30px">医</text>
	<text transform="matrix(1 0 0 1 203.3906 584.2982)" fill="#111111" font-family="'FZSEJW--GB1-0'" font-size="30px">院</text>
	<text transform="matrix(1 0 0 1 253.6276 474.2986)" fill="#111111" font-family="'FZSEJW--GB1-0'" font-size="30px">系</text>
	<text transform="matrix(1 0 0 1 253.6276 504.2986)" fill="#111111" font-family="'FZSEJW--GB1-0'" font-size="30px">馆</text>
	<text transform="matrix(1 0 0 1 253.6276 534.2986)" fill="#111111" font-family="'FZSEJW--GB1-0'" font-size="30px">区</text>
	
		<text transform="matrix(1 0 0 1 189.2801 650.1251)" fill="#111111" font-family="'FZSEJW--GB1-0'" font-size="30px" letter-spacing="-3">近春</text>
	
		<text transform="matrix(1 0 0 1 202.7801 680.1251)" fill="#111111" font-family="'FZSEJW--GB1-0'" font-size="30px" letter-spacing="-3">园</text>
	
		<text transform="matrix(1 0 0 1 259.9934 613.5397)" fill="#111111" font-family="'FZSEJW--GB1-0'" font-size="20px" letter-spacing="-2">荷园</text>
	
		<text transform="matrix(1 0 0 1 252.0115 670.1097)" fill="#111111" font-family="'FZSEJW--GB1-0'" font-size="30px" letter-spacing="-3">荷塘</text>
	
		<text transform="matrix(1 0 0 1 317.2019 638.0002)" fill="#111111" font-family="'FZSEJW--GB1-0'" font-size="20px" letter-spacing="-2">工字厅</text>
	
		<text transform="matrix(1 0 0 1 379.8912 638.0002)" fill="#111111" font-family="'FZSEJW--GB1-0'" font-size="20px" letter-spacing="-2">二教</text>
	
		<text transform="matrix(1 0 0 1 417.6391 638.0002)" fill="#111111" font-family="'FZSEJW--GB1-0'" font-size="20px" letter-spacing="-2">日晷</text>
	
		<text transform="matrix(1 0 0 1 458.907 614.431)" fill="#111111" font-family="'FZSEJW--GB1-0'" font-size="20px" letter-spacing="-2">清华</text>
	
		<text transform="matrix(1 0 0 1 458.907 634.431)" fill="#111111" font-family="'FZSEJW--GB1-0'" font-size="20px" letter-spacing="-2">学堂</text>
	
		<text transform="matrix(1 0 0 1 390.4156 537.4004)" fill="#111111" font-family="'FZSEJW--GB1-0'" font-size="30px" letter-spacing="-3">图书馆总馆</text>
	
		<text transform="matrix(1 0 0 1 333.3921 494.2986)" fill="#111111" font-family="'FZSEJW--GB1-0'" font-size="30px" letter-spacing="-3">西</text>
	
		<text transform="matrix(1 0 0 1 333.3921 524.2986)" fill="#111111" font-family="'FZSEJW--GB1-0'" font-size="30px" letter-spacing="-3">操</text>
	
		<text transform="matrix(1 0 0 1 322.5801 601.679)" fill="#111111" font-family="'FZSEJW--GB1-0'" font-size="20px" letter-spacing="-2">水木清华</text>
	
		<text transform="matrix(1 0 0 1 408.6606 590.0003)" fill="#111111" font-family="'FZSEJW--GB1-0'" font-size="20px" letter-spacing="-2">大礼堂</text>
	
		<text transform="matrix(1 0 0 1 508.7036 613.5394)" fill="#111111" font-family="'FZSEJW--GB1-0'" font-size="20px" letter-spacing="-2">五教</text>
	
		<text transform="matrix(1 0 0 1 508.7037 638.9999)" fill="#111111" font-family="'FZSEJW--GB1-0'" font-size="20px" letter-spacing="-2">四教</text>
	
		<text transform="matrix(1 0 0 1 560.4908 617.5199)" fill="#111111" font-family="'FZSEJW--GB1-0'" font-size="20px" letter-spacing="-2">三</text>
	
		<text transform="matrix(1 0 0 1 560.4908 637.5199)" fill="#111111" font-family="'FZSEJW--GB1-0'" font-size="20px" letter-spacing="-2">教</text>
	
		<text transform="matrix(1 0 0 1 595.405 631.3768)" fill="#111111" font-family="'FZSEJW--GB1-0'" font-size="20px" letter-spacing="-2">六教</text>
	
		<text transform="matrix(1 0 0 1 684.7609 617.1138)" fill="#111111" font-family="'FZSEJW--GB1-0'" font-size="30px" letter-spacing="-3">综体</text>
	
		<text transform="matrix(1 0 0 1 684.761 712.0217)" fill="#111111" font-family="'FZSEJW--GB1-0'" font-size="30px" letter-spacing="-3">主楼</text>
	
		<text transform="matrix(1 0 0 1 558.202 696.0479)" fill="#111111" font-family="'FZSEJW--GB1-0'" font-size="30px" letter-spacing="-3">新清华</text>
	
		<text transform="matrix(1 0 0 1 571.702 726.0479)" fill="#111111" font-family="'FZSEJW--GB1-0'" font-size="30px" letter-spacing="-3">学堂</text>
	
		<text transform="matrix(1 0 0 1 451.233 682.5413)" fill="#111111" font-family="'FZSEJW--GB1-0'" font-size="30px" letter-spacing="-3">系馆区</text>
	
		<text transform="matrix(1 0 0 1 632.22 830.0656)" fill="#111111" font-family="'FZSEJW--GB1-0'" font-size="30px" letter-spacing="-3">系馆区</text>
	
		<text transform="matrix(1 0 0 1 796.6344 937.0001)" fill="#111111" font-family="'FZSEJW--GB1-0'" font-size="30px" letter-spacing="-3">五金</text>
	<text transform="matrix(1 0 0 1 824.7283 467.4583)" fill="#111111" font-family="'FZSEJW--GB1-0'" font-size="30px">系</text>
	<text transform="matrix(1 0 0 1 824.7283 497.4583)" fill="#111111" font-family="'FZSEJW--GB1-0'" font-size="30px">馆</text>
	<text transform="matrix(1 0 0 1 824.7283 527.4583)" fill="#111111" font-family="'FZSEJW--GB1-0'" font-size="30px">区</text>
	<text transform="matrix(1 0 0 1 811.4771 742.9199)" fill="#111111" font-family="'FZSEJW--GB1-0'" font-size="30px">艺博</text>
	<text transform="matrix(1 0 0 1 454.6469 792.5988)" fill="#111111" font-family="'FZSEJW--GB1-0'" font-size="30px">照澜院</text>
	
		<text transform="matrix(1 0 0 1 405.0375 719.0439)" fill="#111111" font-family="'FZSEJW--GB1-0'" font-size="20px" letter-spacing="-2">二校门</text>
	
		<text transform="matrix(1 0 0 1 364.2883 719.0443)" fill="#111111" font-family="'FZSEJW--GB1-0'" font-size="20px" letter-spacing="-2">招办</text>
	
		<text transform="matrix(1 0 0 1 368.4848 664.674)" fill="#111111" font-family="'FZSEJW--GB1-0'" font-size="20px" letter-spacing="-2">甲</text>
	
		<text transform="matrix(1 0 0 1 368.4848 684.674)" fill="#111111" font-family="'FZSEJW--GB1-0'" font-size="20px" letter-spacing="-2">所</text>
	
		<text transform="matrix(1 0 0 1 408.6607 664.6742)" fill="#111111" font-family="'FZSEJW--GB1-0'" font-size="20px" letter-spacing="-2">一</text>
	
		<text transform="matrix(1 0 0 1 408.6607 684.6742)" fill="#111111" font-family="'FZSEJW--GB1-0'" font-size="20px" letter-spacing="-2">教</text>
	
		<text transform="matrix(1 0 0 1 314.5289 664.6742)" fill="#111111" font-family="'FZSEJW--GB1-0'" font-size="20px" letter-spacing="-2">熙春</text>
	
		<text transform="matrix(1 0 0 1 323.5289 684.6742)" fill="#111111" font-family="'FZSEJW--GB1-0'" font-size="20px" letter-spacing="-2">园</text>
	
		<text transform="matrix(1 0 0 1 238.2567 726.4498)" fill="#111111" font-family="'FZSEJW--GB1-0'" font-size="20px" letter-spacing="-2">西湖游泳池</text>
	
		<text transform="matrix(1 0 0 1 319.8919 418.7755)" fill="#111111" font-family="'FZSEJW--GB1-0'" font-size="30px" letter-spacing="-3">观畴</text>
	
		<text transform="matrix(1 0 0 1 476.0049 436.739)" fill="#111111" font-family="'FZSEJW--GB1-0'" font-size="30px" letter-spacing="-3">听涛</text>
	
		<text transform="matrix(1 0 0 1 476.005 372.6182)" fill="#111111" font-family="'FZSEJW--GB1-0'" font-size="30px" letter-spacing="-3">丁香</text>
	
		<text transform="matrix(1 0 0 1 534.215 455.9998)" fill="#111111" font-family="'FZSEJW--GB1-0'" font-size="30px" letter-spacing="-3">清芬</text>
	
		<text transform="matrix(1 0 0 1 518.6364 273.3139)" fill="#111111" font-family="'FZSEJW--GB1-0'" font-size="30px" letter-spacing="-3">C</text>
	
		<text transform="matrix(1 0 0 1 512.7364 298.4389)" fill="#111111" font-family="'FZSEJW--GB1-0'" font-size="30px" letter-spacing="-3">楼</text>
	
		<text transform="matrix(1 0 0 1 405.7439 288.9007)" fill="#111111" font-family="'FZSEJW--GB1-0'" font-size="30px" letter-spacing="-3">宿舍区</text>
	
		<text transform="matrix(1 0 0 1 591.0619 182.256)" fill="#111111" font-family="'FZSEJW--GB1-0'" font-size="30px" letter-spacing="-3">宿舍区</text>
	
		<text transform="matrix(1 0 0 1 797.7798 265.3372)" fill="#111111" font-family="'FZSEJW--GB1-0'" font-size="30px" letter-spacing="-3">宿舍区</text>
	
		<text transform="matrix(1 0 0 1 604.5618 265.337)" fill="#111111" font-family="'FZSEJW--GB1-0'" font-size="30px" letter-spacing="-3">紫操</text>
	
		<text transform="matrix(1 0 0 1 683.5333 293.5198)" fill="#111111" font-family="'FZSEJW--GB1-0'" font-size="20px" letter-spacing="-2">紫荆篮球场</text>
	
		<text transform="matrix(1 0 0 1 683.5334 232.8983)" fill="#111111" font-family="'FZSEJW--GB1-0'" font-size="20px" letter-spacing="-2">紫荆网球场</text>
	
		<text transform="matrix(1 0 0 1 658.7612 475.299)" fill="#111111" font-family="'FZSEJW--GB1-0'" font-size="17px" letter-spacing="-1">东区</text>
	
		<text transform="matrix(1 0 0 1 649.7612 495.299)" fill="#111111" font-family="'FZSEJW--GB1-0'" font-size="17px" letter-spacing="-1">篮球场</text>
	
		<text transform="matrix(1 0 0 1 658.7616 526.4003)" fill="#111111" font-family="'FZSEJW--GB1-0'" font-size="17px" letter-spacing="-1">东区</text>
	
		<text transform="matrix(1 0 0 1 649.7616 546.4003)" fill="#111111" font-family="'FZSEJW--GB1-0'" font-size="17px" letter-spacing="-1">排球场</text>
	
		<text transform="matrix(1 0 0 1 717.306 513.9265)" fill="#111111" font-family="'FZSEJW--GB1-0'" font-size="30px" letter-spacing="-3">东操</text>
	
		<text transform="matrix(1 0 0 1 564.4512 496.7561)" fill="#111111" font-family="'FZSEJW--GB1-0'" font-size="25px" letter-spacing="-2">南区</text>
	
		<text transform="matrix(1 0 0 1 552.6919 522.8879)" fill="#111111" font-family="'FZSEJW--GB1-0'" font-size="25px" letter-spacing="-2">宿舍区</text>
	
		<text transform="matrix(1 0 0 1 558.242 576.3682)" fill="#111111" font-family="'FZSEJW--GB1-0'" font-size="30px" letter-spacing="-3">文图</text>
	
		<text transform="matrix(1 0 0 1 646.6135 344.8067)" fill="#111111" font-family="'FZSEJW--GB1-0'" font-size="20px" letter-spacing="-2">足球场</text>
	
		<text transform="matrix(1 0 0 1 644.261 431.8824)" fill="#111111" font-family="'FZSEJW--GB1-0'" font-size="30px" letter-spacing="-3">陈明游泳馆</text>
	
		<text transform="matrix(1 0 0 1 735.8057 338.1398)" fill="#111111" font-family="'FZSEJW--GB1-0'" font-size="20px" letter-spacing="-2">雕</text>
	
		<text transform="matrix(1 0 0 1 735.8057 358.1398)" fill="#111111" font-family="'FZSEJW--GB1-0'" font-size="20px" letter-spacing="-2">塑</text>
	
		<text transform="matrix(1 0 0 1 735.8057 378.1398)" fill="#111111" font-family="'FZSEJW--GB1-0'" font-size="20px" letter-spacing="-2">园</text>
	
		<text transform="matrix(1 0 0 1 917.1271 300.0709)" fill="#111111" font-family="'FZSEJW--GB1-0'" font-size="30px" letter-spacing="-3">双</text>
	
		<text transform="matrix(1 0 0 1 917.1271 330.0709)" fill="#111111" font-family="'FZSEJW--GB1-0'" font-size="30px" letter-spacing="-3">清</text>
	
		<text transform="matrix(1 0 0 1 769.4532 150.2207)" fill="#111111" font-family="'FZSEJW--GB1-0'" font-size="30px" letter-spacing="-3">芝</text>
	
		<text transform="matrix(1 0 0 1 769.4532 180.2207)" fill="#111111" font-family="'FZSEJW--GB1-0'" font-size="30px" letter-spacing="-3">兰</text>
	
		<text transform="matrix(1 0 0 1 678.8392 80.0997)" fill="#111111" font-family="'FZSEJW--GB1-0'" font-size="20px" letter-spacing="-2">气膜馆</text>
	
		<text transform="matrix(1 0 0 1 521.7452 129.4147)" fill="#111111" font-family="'FZSEJW--GB1-0'" font-size="30px" letter-spacing="-3">桃李</text>
	
		<text transform="matrix(1 0 0 1 604.5618 129.4146)" fill="#111111" font-family="'FZSEJW--GB1-0'" font-size="30px" letter-spacing="-3">紫荆</text>
	
		<text transform="matrix(1 0 0 1 688.32 129.4145)" fill="#111111" font-family="'FZSEJW--GB1-0'" font-size="30px" letter-spacing="-3">玉树</text>
	
		<text transform="matrix(1 0 0 1 606.8342 346.3176)" fill="#111111" font-family="'FZSEJW--GB1-0'" font-size="20px" letter-spacing="-2">苏</text>
	
		<text transform="matrix(1 0 0 1 606.8342 370.3176)" fill="#111111" font-family="'FZSEJW--GB1-0'" font-size="20px" letter-spacing="-2">世</text>
	
		<text transform="matrix(1 0 0 1 606.8342 394.3176)" fill="#111111" font-family="'FZSEJW--GB1-0'" font-size="20px" letter-spacing="-2">民</text>
	
		<text transform="matrix(1 0 0 1 606.8342 418.3176)" fill="#111111" font-family="'FZSEJW--GB1-0'" font-size="20px" letter-spacing="-2">书</text>
	
		<text transform="matrix(1 0 0 1 606.8342 442.3176)" fill="#111111" font-family="'FZSEJW--GB1-0'" font-size="20px" letter-spacing="-2">院</text>
	
		<text transform="matrix(1 0 0 1 469.7002 474.8451)" fill="#111111" font-family="'FZSEJW--GB1-0'" font-size="20px" letter-spacing="-2">情人坡</text>
</g>
<g id="二维码">
	<g>
		<defs>
			<polygon id="SVGID_1_" points="66.5,86.4 66.8,86.4 66.5,86.7 			"/>
		</defs>
		<defs>
			<polygon id="SVGID_2_" points="65.9,85.8 65.6,85.8 65.9,85.5 			"/>
		</defs>
		<clipPath id="SVGID_3_">
			<use xlink:href="#SVGID_1_"  overflow="visible"/>
		</clipPath>
		<clipPath id="SVGID_4_" clip-path="url(#SVGID_3_)">
			<use xlink:href="#SVGID_2_"  overflow="visible"/>
		</clipPath>
		<path id="SvgjsPath1004" clip-path="url(#SVGID_4_)" d="M70.5,99.7c0-5.2,4.1-9.3,9.3-9.3h142.5v151.8H70.5V99.7z"/>
	</g>
	<rect id="background" x="66.2" y="86.1" fill="#FFFFFF" width="151.8" height="151.8"/>
	<path id="r0C11" fill="#4C2C6E" d="M118.9,92.2h4.3v4.3h-4.3V92.2z"/>
	<path id="r0C13" fill="#4C2C6E" d="M127.3,92.2h2.1c1.2,0,2.1,1,2.1,2.1v2.1h-4.3V92.2z"/>
	<path id="r0C14" fill="#4C2C6E" d="M133.7,92.2h2.1v4.3h-4.3v-2.1C131.6,93.1,132.5,92.2,133.7,92.2z"/>
	<path id="r0C18" fill="#4C2C6E" d="M148.5,92.2h4.3v4.3h-4.3V92.2z"/>
	<path id="r0C21" fill="#4C2C6E" d="M161.2,92.2h2.1c1.2,0,2.1,1,2.1,2.1v2.1h-4.3V92.2z"/>
	<path id="r0C22" fill="#4C2C6E" d="M167.5,92.2h2.1v4.3h-4.3v-2.1C165.4,93.1,166.4,92.2,167.5,92.2z"/>
	<path id="r0C24" fill="#4C2C6E" d="M173.9,92.2h4.3v4.3h-4.3V92.2z"/>
	<path id="r1C9" fill="#4C2C6E" d="M110.4,96.4h4.3v4.3h-4.3V96.4z"/>
	<path id="r1C12" fill="#4C2C6E" d="M123.1,96.4h2.1c1.2,0,2.1,1,2.1,2.1v2.1h-4.3V96.4z"/>
	<path id="r1C13" fill="#4C2C6E" d="M127.3,96.4h4.3v4.3h-4.3V96.4z"/>
	<path id="r1C14" fill="#4C2C6E" d="M131.6,96.4h4.3v4.3h-4.3V96.4z"/>
	<path id="r1C15" fill="#4C2C6E" d="M137.9,96.4L137.9,96.4c1.2,0,2.1,1,2.1,2.1l0,0c0,1.2-1,2.1-2.1,2.1l0,0c-1.2,0-2.1-1-2.1-2.1
		l0,0C135.8,97.4,136.7,96.4,137.9,96.4z"/>
	<path id="r1C16" fill="#4C2C6E" d="M142.2,96.4L142.2,96.4c1.2,0,2.1,1,2.1,2.1l0,0c0,1.2-1,2.1-2.1,2.1l0,0c-1.2,0-2.1-1-2.1-2.1
		l0,0C140,97.4,141,96.4,142.2,96.4z"/>
	<path id="r1C17" fill="#4C2C6E" d="M146.4,96.4h2.1v4.3h-4.3v-2.1C144.3,97.4,145.2,96.4,146.4,96.4z"/>
	<path id="r1C20" fill="#4C2C6E" d="M156.9,96.4h2.1c1.2,0,2.1,1,2.1,2.1l0,0c0,1.2-1,2.1-2.1,2.1h-2.1V96.4z"/>
	<path id="r1C21" fill="#4C2C6E" d="M161.2,96.4h4.3v4.3h-4.3V96.4z"/>
	<path id="r1C22" fill="#4C2C6E" d="M165.4,96.4h4.3v4.3h-2.1c-1.2,0-2.1-1-2.1-2.1V96.4z"/>
	<path id="r1C24" fill="#4C2C6E" d="M173.9,96.4h4.3v4.3h-4.3V96.4z"/>
	<path id="r2C8" fill="#4C2C6E" d="M106.2,100.7h4.3v4.3h-4.3V100.7z"/>
	<path id="r2C12" fill="#4C2C6E" d="M123.1,100.7h4.3v2.1c0,1.2-1,2.1-2.1,2.1h-2.1V100.7z"/>
	<path id="r2C13" fill="#4C2C6E" d="M127.3,100.7h4.3v4.3h-4.3V100.7z"/>
	<path id="r2C14" fill="#4C2C6E" d="M131.6,100.7h4.3v4.3h-2.1c-1.2,0-2.1-1-2.1-2.1V100.7z"/>
	<path id="r2C17" fill="#4C2C6E" d="M144.3,100.7h4.3v4.3h-4.3V100.7z"/>
	<path id="r2C18" fill="#4C2C6E" d="M150.6,100.7L150.6,100.7c1.2,0,2.1,1,2.1,2.1v2.1h-4.3v-2.1
		C148.5,101.6,149.4,100.7,150.6,100.7z"/>
	<path id="r2C19" fill="#4C2C6E" d="M154.9,100.7h2.1v4.3h-4.3v-2.1C152.7,101.6,153.7,100.7,154.9,100.7z"/>
	<path id="r2C21" fill="#4C2C6E" d="M161.2,100.7h4.3v4.3h-4.3V100.7z"/>
	<path id="r2C23" fill="#4C2C6E" d="M169.6,100.7h2.1c1.2,0,2.1,1,2.1,2.1c0,0,0,0,0,0v2.1h-4.3V100.7z"/>
	<path id="r2C24" fill="#4C2C6E" d="M173.9,100.7h4.3v4.3h-4.3V100.7z"/>
	<path id="r3C8" fill="#4C2C6E" d="M106.2,104.9h4.3v4.3h-4.3V104.9z"/>
	<path id="r3C10" fill="#4C2C6E" d="M114.6,104.9h4.3v4.3h-4.3V104.9z"/>
	<path id="r3C13" fill="#4C2C6E" d="M127.3,104.9h4.3v4.3h-4.3V104.9z"/>
	<path id="r3C16" fill="#4C2C6E" d="M140,104.9h2.1c1.2,0,2.1,1,2.1,2.1l0,0c0,1.2-1,2.1-2.1,2.1H140V104.9z"/>
	<path id="r3C17" fill="#4C2C6E" d="M144.3,104.9h4.3v2.1c0,1.2-1,2.1-2.1,2.1l0,0c-1.2,0-2.1-1-2.1-2.1V104.9z"/>
	<path id="r3C18" fill="#4C2C6E" d="M148.5,104.9h4.3v2.1c0,1.2-1,2.1-2.1,2.1l0,0c-1.2,0-2.1-1-2.1-2.1V104.9z"/>
	<path id="r3C19" fill="#4C2C6E" d="M152.7,104.9h4.3v4.3h-2.1c-1.2,0-2.1-1-2.1-2.1V104.9z"/>
	<path id="r3C21" fill="#4C2C6E" d="M161.2,104.9h4.3v4.3h-4.3V104.9z"/>
	<path id="r3C23" fill="#4C2C6E" d="M169.6,104.9h4.3v4.3h-4.3V104.9z"/>
	<path id="r3C24" fill="#4C2C6E" d="M173.9,104.9h4.3v4.3h-4.3V104.9z"/>
	<path id="r4C13" fill="#4C2C6E" d="M127.3,109.1h4.3v2.1c0,1.2-1,2.1-2.1,2.1l0,0h-2.1V109.1z"/>
	<path id="r4C14" fill="#4C2C6E" d="M133.7,109.1L133.7,109.1c1.2,0,2.1,1,2.1,2.1v2.1h-4.3v-2.1
		C131.6,110.1,132.5,109.1,133.7,109.1z"/>
	<path id="r4C15" fill="#4C2C6E" d="M137.9,109.1h2.1v4.3h-2.1c-1.2,0-2.1-1-2.1-2.1l0,0l0,0C135.8,110.1,136.7,109.1,137.9,109.1z"
		/>
	<path id="r4C20" fill="#4C2C6E" d="M156.9,109.1h2.1c1.2,0,2.1,1,2.1,2.1l0,0c0,1.2-1,2.1-2.1,2.1l0,0h-2.1V109.1z"/>
	<path id="r4C21" fill="#4C2C6E" d="M161.2,109.1h4.3v4.3h-4.3V109.1z"/>
	<path id="r4C23" fill="#4C2C6E" d="M169.6,109.1h4.3v4.3h-4.3V109.1z"/>
	<path id="r4C24" fill="#4C2C6E" d="M173.9,109.1h4.3v4.3H176c-1.2,0-2.1-1-2.1-2.1c0,0,0,0,0,0V109.1z"/>
	<path id="r5C12" fill="#4C2C6E" d="M123.1,113.3h4.3v4.3h-4.3V113.3z"/>
	<path id="r5C14" fill="#4C2C6E" d="M131.6,113.3h4.3v4.3h-4.3V113.3z"/>
	<path id="r5C17" fill="#4C2C6E" d="M144.3,113.3h2.1c1.2,0,2.1,1,2.1,2.1l0,0l0,0c0,1.2-1,2.1-2.1,2.1h-2.1V113.3z"/>
	<path id="r5C18" fill="#4C2C6E" d="M150.6,113.3h2.1v4.3h-4.3v-2.1C148.5,114.3,149.4,113.3,150.6,113.3L150.6,113.3z"/>
	<path id="r5C21" fill="#4C2C6E" d="M161.2,113.3h4.3v4.3h-4.3V113.3z"/>
	<path id="r5C23" fill="#4C2C6E" d="M169.6,113.3h4.3v4.3h-4.3V113.3z"/>
	<path id="r6C8" fill="#4C2C6E" d="M106.2,117.6h4.3v4.3h-4.3V117.6z"/>
	<path id="r6C10" fill="#4C2C6E" d="M114.6,117.6h4.3v4.3h-4.3V117.6z"/>
	<path id="r6C12" fill="#4C2C6E" d="M123.1,117.6h4.3v4.3h-4.3V117.6z"/>
	<path id="r6C14" fill="#4C2C6E" d="M131.6,117.6h4.3v4.3h-4.3V117.6z"/>
	<path id="r6C16" fill="#4C2C6E" d="M140,117.6h4.3v4.3H140V117.6z"/>
	<path id="r6C18" fill="#4C2C6E" d="M148.5,117.6h4.3v4.3h-4.3V117.6z"/>
	<path id="r6C20" fill="#4C2C6E" d="M156.9,117.6h4.3v4.3h-4.3V117.6z"/>
	<path id="r6C22" fill="#4C2C6E" d="M165.4,117.6h4.3v4.3h-4.3V117.6z"/>
	<path id="r6C24" fill="#4C2C6E" d="M173.9,117.6h4.3v4.3h-4.3V117.6z"/>
	<path id="r7C9" fill="#4C2C6E" d="M110.4,121.8h4.3v4.3h-4.3V121.8z"/>
	<path id="r7C13" fill="#4C2C6E" d="M127.3,121.8h2.1c1.2,0,2.1,1,2.1,2.1l0,0c0,1.2-1,2.1-2.1,2.1h-2.1V121.8z"/>
	<path id="r7C14" fill="#4C2C6E" d="M131.6,121.8h4.3v4.3h-4.3V121.8z"/>
	<path id="r7C16" fill="#4C2C6E" d="M140,121.8h4.3v4.3H140V121.8z"/>
	<path id="r7C17" fill="#4C2C6E" d="M146.4,121.8L146.4,121.8c1.2,0,2.1,1,2.1,2.1l0,0c0,1.2-1,2.1-2.1,2.1l0,0
		c-1.2,0-2.1-1-2.1-2.1l0,0C144.3,122.8,145.2,121.8,146.4,121.8z"/>
	<path id="r7C18" fill="#4C2C6E" d="M148.5,121.8h4.3v4.3h-4.3V121.8z"/>
	<path id="r7C22" fill="#4C2C6E" d="M165.4,121.8h4.3v4.3h-4.3V121.8z"/>
	<path id="r7C23" fill="#4C2C6E" d="M171.8,121.8L171.8,121.8c1.2,0,2.1,1,2.1,2.1c0,0,0,0,0,0l0,0c0,1.2-1,2.1-2.1,2.1l0,0l0,0
		c-1.2,0-2.1-1-2.1-2.1l0,0C169.6,122.8,170.6,121.8,171.8,121.8z"/>
	<path id="r7C24" fill="#4C2C6E" d="M173.9,121.8h4.3v4.3h-4.3V121.8z"/>
	<path id="r8C3" fill="#4C2C6E" d="M85,126h2.1c1.2,0,2.1,1,2.1,2.1v2.1H85V126z"/>
	<path id="r8C4" fill="#4C2C6E" d="M91.4,126h2.1v4.3h-4.3v-2.1C89.2,127,90.2,126,91.4,126z"/>
	<path id="r8C6" fill="#4C2C6E" d="M97.7,126h2.1c1.2,0,2.1,1,2.1,2.1l0,0c0,1.2-1,2.1-2.1,2.1h-2.1V126z"/>
	<path id="r8C7" fill="#4C2C6E" d="M104.1,126h2.1v4.3h-4.3v-2.1C101.9,127,102.9,126,104.1,126z"/>
	<path id="r8C12" fill="#4C2C6E" d="M123.1,126h4.3v4.3h-4.3V126z"/>
	<path id="r8C14" fill="#4C2C6E" d="M131.6,126h4.3v4.3h-4.3V126z"/>
	<path id="r8C16" fill="#4C2C6E" d="M140,126h4.3v4.3H140V126z"/>
	<path id="r8C18" fill="#4C2C6E" d="M148.5,126h4.3v2.1c0,1.2-1,2.1-2.1,2.1h-2.1V126z"/>
	<path id="r8C19" fill="#4C2C6E" d="M154.9,126h2.1v4.3h-2.1c-1.2,0-2.1-1-2.1-2.1l0,0C152.7,127,153.7,126,154.9,126z"/>
	<path id="r8C22" fill="#4C2C6E" d="M165.4,126h4.3v4.3h-4.3V126z"/>
	<path id="r8C24" fill="#4C2C6E" d="M173.9,126h4.3v4.3h-4.3V126z"/>
	<path id="r8C29" fill="#4C2C6E" d="M195,126h2.1c1.2,0,2.1,1,2.1,2.1l0,0c0,1.2-1,2.1-2.1,2.1H195V126z"/>
	<path id="r8C30" fill="#4C2C6E" d="M201.4,126h2.1v4.3h-4.3v-2.1C199.3,127,200.2,126,201.4,126z"/>
	<path id="r9C0" fill="#4C2C6E" d="M72.3,130.3h4.3v4.3h-4.3V130.3z"/>
	<path id="r9C2" fill="#4C2C6E" d="M80.8,130.3h2.1c1.2,0,2.1,1,2.1,2.1v2.1h-4.3V130.3z"/>
	<path id="r9C3" fill="#4C2C6E" d="M85,130.3h4.3v4.3H85V130.3z"/>
	<path id="r9C4" fill="#4C2C6E" d="M89.2,130.3h4.3v4.3h-4.3V130.3z"/>
	<path id="r9C7" fill="#4C2C6E" d="M101.9,130.3h4.3v4.3h-4.3V130.3z"/>
	<path id="r9C10" fill="#4C2C6E" d="M114.6,130.3h2.1c1.2,0,2.1,1,2.1,2.1c0,0,0,0,0,0l0,0c0,1.2-1,2.1-2.1,2.1c0,0,0,0,0,0h-2.1
		V130.3z"/>
	<path id="r9C11" fill="#4C2C6E" d="M121,130.3L121,130.3c1.2,0,2.1,1,2.1,2.1v2.1h-4.3v-2.1C118.9,131.2,119.8,130.3,121,130.3
		C121,130.3,121,130.3,121,130.3z"/>
	<path id="r9C12" fill="#4C2C6E" d="M123.1,130.3h4.3v4.3h-4.3V130.3z"/>
	<path id="r9C13" fill="#4C2C6E" d="M129.5,130.3L129.5,130.3c1.2,0,2.1,1,2.1,2.1l0,0c0,1.2-1,2.1-2.1,2.1l0,0
		c-1.2,0-2.1-1-2.1-2.1l0,0C127.3,131.2,128.3,130.3,129.5,130.3z"/>
	<path id="r9C14" fill="#4C2C6E" d="M131.6,130.3h4.3v4.3h-2.1c-1.2,0-2.1-1-2.1-2.1V130.3z"/>
	<path id="r9C16" fill="#4C2C6E" d="M140,130.3h4.3v4.3H140V130.3z"/>
	<path id="r9C21" fill="#4C2C6E" d="M161.2,130.3h2.1c1.2,0,2.1,1,2.1,2.1l0,0c0,1.2-1,2.1-2.1,2.1h-2.1V130.3z"/>
	<path id="r9C22" fill="#4C2C6E" d="M165.4,130.3h4.3v4.3h-4.3V130.3z"/>
	<path id="r9C23" fill="#4C2C6E" d="M171.8,130.3h2.1v4.3h-4.3v-2.1C169.6,131.2,170.6,130.3,171.8,130.3z"/>
	<path id="r9C25" fill="#4C2C6E" d="M178.1,130.3h4.3v4.3h-4.3V130.3z"/>
	<path id="r9C27" fill="#4C2C6E" d="M186.6,130.3h2.1c1.2,0,2.1,1,2.1,2.1v2.1h-4.3V130.3z"/>
	<path id="r9C28" fill="#4C2C6E" d="M192.9,130.3h2.1v4.3h-2.1c-1.2,0-2.1-1-2.1-2.1l0,0C190.8,131.2,191.8,130.3,192.9,130.3z"/>
	<path id="r9C30" fill="#4C2C6E" d="M199.3,130.3h4.3v2.1c0,1.2-1,2.1-2.1,2.1h-2.1V130.3z"/>
	<path id="r9C31" fill="#4C2C6E" d="M205.6,130.3h2.1v4.3h-4.3v-2.1C203.5,131.2,204.5,130.3,205.6,130.3z"/>
	<path id="r10C1" fill="#4C2C6E" d="M76.5,134.5h2.1c1.2,0,2.1,1,2.1,2.1v2.1h-4.3V134.5z"/>
	<path id="r10C2" fill="#4C2C6E" d="M80.8,134.5H85v4.3h-4.3V134.5z"/>
	<path id="r10C3" fill="#4C2C6E" d="M85,134.5h4.3v2.1c0,1.2-1,2.1-2.1,2.1h0l0,0c-1.2,0-2.1-1-2.1-2.1l0,0V134.5z"/>
	<path id="r10C4" fill="#4C2C6E" d="M89.2,134.5h4.3v4.3h-2.1c-1.2,0-2.1-1-2.1-2.1c0,0,0,0,0,0V134.5z"/>
	<path id="r10C6" fill="#4C2C6E" d="M97.7,134.5h2.1c1.2,0,2.1,1,2.1,2.1l0,0c0,1.2-1,2.1-2.1,2.1l0,0h-2.1V134.5z"/>
	<path id="r10C7" fill="#4C2C6E" d="M101.9,134.5h4.3v4.3h-2.1c-1.2,0-2.1-1-2.1-2.1c0,0,0,0,0,0V134.5z"/>
	<path id="r10C11" fill="#4C2C6E" d="M118.9,134.5h4.3v2.1c0,1.2-1,2.1-2.1,2.1c0,0,0,0,0,0h-2.1V134.5z"/>
	<path id="r10C12" fill="#4C2C6E" d="M123.1,134.5h4.3v4.3h-4.3V134.5z"/>
	<path id="r10C17" fill="#4C2C6E" d="M144.3,134.5h4.3v4.3h-4.3V134.5z"/>
	<path id="r10C19" fill="#4C2C6E" d="M152.7,134.5h2.1c1.2,0,2.1,1,2.1,2.1l0,0c0,1.2-1,2.1-2.1,2.1l0,0h-2.1V134.5z"/>
	<path id="r10C20" fill="#4C2C6E" d="M159.1,134.5h2.1v4.3h-2.1c-1.2,0-2.1-1-2.1-2.1c0,0,0,0,0,0l0,0
		C156.9,135.5,157.9,134.5,159.1,134.5z"/>
	<path id="r10C22" fill="#4C2C6E" d="M165.4,134.5h4.3v4.3h-4.3V134.5z"/>
	<path id="r10C23" fill="#4C2C6E" d="M169.6,134.5h4.3v2.1c0,1.2-1,2.1-2.1,2.1l0,0l0,0c-1.2,0-2.1-1-2.1-2.1c0,0,0,0,0,0V134.5z"/>
	<path id="r10C24" fill="#4C2C6E" d="M176,134.5L176,134.5c1.2,0,2.1,1,2.1,2.1l0,0c0,1.2-1,2.1-2.1,2.1l0,0l0,0
		c-1.2,0-2.1-1-2.1-2.1c0,0,0,0,0,0l0,0C173.9,135.5,174.8,134.5,176,134.5L176,134.5z"/>
	<path id="r10C25" fill="#4C2C6E" d="M178.1,134.5h4.3v4.3h-2.1c-1.2,0-2.1-1-2.1-2.1c0,0,0,0,0,0V134.5z"/>
	<path id="r10C27" fill="#4C2C6E" d="M186.6,134.5h4.3v4.3h-4.3V134.5z"/>
	<path id="r10C31" fill="#4C2C6E" d="M203.5,134.5h4.3v4.3h-4.3V134.5z"/>
	<path id="r10C32" fill="#4C2C6E" d="M209.9,134.5h2.1v4.3h-2.1c-1.2,0-2.1-1-2.1-2.1c0,0,0,0,0,0l0,0
		C207.7,135.5,208.7,134.5,209.9,134.5z"/>
	<path id="r11C1" fill="#4C2C6E" d="M76.5,138.7h4.3v2.1c0,1.2-1,2.1-2.1,2.1h-2.1V138.7z"/>
	<path id="r11C2" fill="#4C2C6E" d="M80.8,138.7H85v4.3h-4.3V138.7z"/>
	<path id="r11C10" fill="#4C2C6E" d="M114.6,138.7h4.3v4.3h-4.3V138.7z"/>
	<path id="r11C12" fill="#4C2C6E" d="M123.1,138.7h4.3v2.1c0,1.2-1,2.1-2.1,2.1h-2.1V138.7z"/>
	<path id="r11C13" fill="#4C2C6E" d="M129.5,138.7h2.1v4.3h-4.3v-2.1C127.3,139.7,128.3,138.7,129.5,138.7
		C129.5,138.7,129.5,138.7,129.5,138.7z"/>
	<path id="r11C17" fill="#4C2C6E" d="M144.3,138.7h4.3v4.3h-4.3V138.7z"/>
	<path id="r11C21" fill="#4C2C6E" d="M161.2,138.7h2.1c1.2,0,2.1,1,2.1,2.1c0,0,0,0,0,0v2.1h-4.3V138.7z"/>
	<path id="r11C22" fill="#4C2C6E" d="M165.4,138.7h4.3v4.3h-2.1c-1.2,0-2.1-1-2.1-2.1V138.7z"/>
	<path id="r11C26" fill="#4C2C6E" d="M182.3,138.7h2.1c1.2,0,2.1,1,2.1,2.1c0,0,0,0,0,0v2.1h-4.3V138.7z"/>
	<path id="r11C27" fill="#4C2C6E" d="M186.6,138.7h4.3v4.3h-4.3V138.7z"/>
	<path id="r11C28" fill="#4C2C6E" d="M192.9,138.7h2.1v4.3h-4.3v-2.1C190.8,139.7,191.8,138.7,192.9,138.7L192.9,138.7z"/>
	<path id="r11C30" fill="#4C2C6E" d="M199.3,138.7h2.1c1.2,0,2.1,1,2.1,2.1c0,0,0,0,0,0l0,0c0,1.2-1,2.1-2.1,2.1h-2.1V138.7z"/>
	<path id="r11C31" fill="#4C2C6E" d="M203.5,138.7h4.3v4.3h-4.3V138.7z"/>
	<path id="r12C0" fill="#4C2C6E" d="M72.3,143h4.3v4.3h-4.3V143z"/>
	<path id="r12C2" fill="#4C2C6E" d="M80.8,143H85v2.1c0,1.2-1,2.1-2.1,2.1h-2.1V143z"/>
	<path id="r12C3" fill="#4C2C6E" d="M87.1,143L87.1,143c1.2,0,2.1,1,2.1,2.1c0,0,0,0,0,0v2.1H85v-2.1C85,143.9,86,143,87.1,143
		C87.1,143,87.1,143,87.1,143z"/>
	<path id="r12C4" fill="#4C2C6E" d="M91.4,143h2.1v4.3h-2.1c-1.2,0-2.1-1-2.1-2.1l0,0C89.2,143.9,90.2,143,91.4,143L91.4,143z"/>
	<path id="r12C6" fill="#4C2C6E" d="M97.7,143h2.1c1.2,0,2.1,1,2.1,2.1c0,0,0,0,0,0l0,0c0,1.2-1,2.1-2.1,2.1h-2.1V143z"/>
	<path id="r12C7" fill="#4C2C6E" d="M104.1,143L104.1,143c1.2,0,2.1,1,2.1,2.1c0,0,0,0,0,0v2.1h-4.3v-2.1
		C101.9,143.9,102.9,143,104.1,143L104.1,143z"/>
	<path id="r12C8" fill="#4C2C6E" d="M108.3,143L108.3,143c1.2,0,2.1,1,2.1,2.1c0,0,0,0,0,0l0,0c0,1.2-1,2.1-2.1,2.1l0,0
		c-1.2,0-2.1-1-2.1-2.1l0,0C106.2,143.9,107.1,143,108.3,143C108.3,143,108.3,143,108.3,143z"/>
	<path id="r12C9" fill="#4C2C6E" d="M112.5,143h2.1v4.3h-4.3v-2.1C110.4,143.9,111.3,143,112.5,143C112.5,143,112.5,143,112.5,143z"
		/>
	<path id="r12C11" fill="#4C2C6E" d="M118.9,143h4.3v4.3h-4.3V143z"/>
	<path id="r12C13" fill="#4C2C6E" d="M127.3,143h4.3v4.3h-4.3V143z"/>
	<path id="r12C15" fill="#4C2C6E" d="M135.8,143h2.1c1.2,0,2.1,1,2.1,2.1c0,0,0,0,0,0v2.1h-4.3V143z"/>
	<path id="r12C16" fill="#4C2C6E" d="M142.2,143L142.2,143c1.2,0,2.1,1,2.1,2.1c0,0,0,0,0,0l0,0c0,1.2-1,2.1-2.1,2.1l0,0
		c-1.2,0-2.1-1-2.1-2.1l0,0C140,143.9,141,143,142.2,143C142.2,143,142.2,143,142.2,143z"/>
	<path id="r12C17" fill="#4C2C6E" d="M144.3,143h4.3v4.3h-4.3V143z"/>
	<path id="r12C18" fill="#4C2C6E" d="M150.6,143h2.1v4.3h-2.1c-1.2,0-2.1-1-2.1-2.1l0,0C148.5,143.9,149.4,143,150.6,143L150.6,143z
		"/>
	<path id="r12C21" fill="#4C2C6E" d="M161.2,143h4.3v4.3h-4.3V143z"/>
	<path id="r12C26" fill="#4C2C6E" d="M182.3,143h4.3v2.1c0,1.2-1,2.1-2.1,2.1h-2.1V143z"/>
	<path id="r12C27" fill="#4C2C6E" d="M186.6,143h4.3v4.3h-4.3V143z"/>
	<path id="r12C28" fill="#4C2C6E" d="M190.8,143h4.3v2.1c0,1.2-1,2.1-2.1,2.1l0,0c-1.2,0-2.1-1-2.1-2.1V143z"/>
	<path id="r12C29" fill="#4C2C6E" d="M197.2,143h2.1v4.3H195v-2.1C195,143.9,196,143,197.2,143L197.2,143z"/>
	<path id="r12C31" fill="#4C2C6E" d="M203.5,143h4.3v4.3h-4.3V143z"/>
	<path id="r12C32" fill="#4C2C6E" d="M209.9,143h2.1v4.3h-2.1c-1.2,0-2.1-1-2.1-2.1l0,0C207.7,143.9,208.7,143,209.9,143L209.9,143z
		"/>
	<path id="r13C1" fill="#4C2C6E" d="M76.5,147.2h4.3v4.3h-4.3V147.2z"/>
	<path id="r13C3" fill="#4C2C6E" d="M85,147.2h4.3v4.3H85V147.2z"/>
	<path id="r13C7" fill="#4C2C6E" d="M101.9,147.2h4.3v4.3h-4.3V147.2z"/>
	<path id="r13C9" fill="#4C2C6E" d="M110.4,147.2h4.3v2.1c0,1.2-1,2.1-2.1,2.1h-2.1V147.2z"/>
	<path id="r13C10" fill="#4C2C6E" d="M116.8,147.2h2.1v4.3h-4.3v-2.1C114.6,148.2,115.6,147.2,116.8,147.2z"/>
	<path id="r13C12" fill="#4C2C6E" d="M123.1,147.2h2.1c1.2,0,2.1,1,2.1,2.1v2.1h-4.3V147.2z"/>
	<path id="r13C13" fill="#4C2C6E" d="M127.3,147.2h4.3v4.3h-4.3V147.2z"/>
	<path id="r13C14" fill="#4C2C6E" d="M133.7,147.2L133.7,147.2c1.2,0,2.1,1,2.1,2.1v2.1h-4.3v-2.1
		C131.6,148.2,132.5,147.2,133.7,147.2z"/>
	<path id="r13C15" fill="#4C2C6E" d="M135.8,147.2h4.3v4.3h-2.1c-1.2,0-2.1-1-2.1-2.1V147.2z"/>
	<path id="r13C17" fill="#4C2C6E" d="M144.3,147.2h4.3v4.3h-4.3V147.2z"/>
	<path id="r13C21" fill="#4C2C6E" d="M161.2,147.2h4.3v4.3h-4.3V147.2z"/>
	<path id="r13C23" fill="#4C2C6E" d="M169.6,147.2h4.3v4.3h-4.3V147.2z"/>
	<path id="r13C25" fill="#4C2C6E" d="M178.1,147.2h4.3v4.3h-4.3V147.2z"/>
	<path id="r13C27" fill="#4C2C6E" d="M186.6,147.2h4.3v4.3h-4.3V147.2z"/>
	<path id="r13C29" fill="#4C2C6E" d="M195,147.2h4.3v4.3H195V147.2z"/>
	<path id="r13C31" fill="#4C2C6E" d="M203.5,147.2h4.3v4.3h-4.3V147.2z"/>
	<path id="r14C1" fill="#4C2C6E" d="M76.5,151.4h4.3v4.3h-4.3V151.4z"/>
	<path id="r14C2" fill="#4C2C6E" d="M82.9,151.4L82.9,151.4c1.2,0,2.1,1,2.1,2.1l0,0c0,1.2-1,2.1-2.1,2.1l0,0c-1.2,0-2.1-1-2.1-2.1
		l0,0C80.8,152.4,81.7,151.4,82.9,151.4z"/>
	<path id="r14C3" fill="#4C2C6E" d="M85,151.4h4.3v4.3H85V151.4z"/>
	<path id="r14C5" fill="#4C2C6E" d="M93.5,151.4h2.1c1.2,0,2.1,1,2.1,2.1l0,0c0,1.2-1,2.1-2.1,2.1h-2.1V151.4z"/>
	<path id="r14C6" fill="#4C2C6E" d="M99.8,151.4h2.1v4.3h-2.1c-1.2,0-2.1-1-2.1-2.1l0,0l0,0C97.7,152.4,98.7,151.4,99.8,151.4
		L99.8,151.4z"/>
	<path id="r14C8" fill="#4C2C6E" d="M106.2,151.4h4.3v4.3h-4.3V151.4z"/>
	<path id="r14C10" fill="#4C2C6E" d="M114.6,151.4h4.3v4.3h-4.3V151.4z"/>
	<path id="r14C12" fill="#4C2C6E" d="M123.1,151.4h4.3v2.1c0,1.2-1,2.1-2.1,2.1h-2.1V151.4z"/>
	<path id="r14C13" fill="#4C2C6E" d="M127.3,151.4h4.3v4.3h-4.3V151.4z"/>
	<path id="r14C14" fill="#4C2C6E" d="M131.6,151.4h4.3v4.3h-2.1c-1.2,0-2.1-1-2.1-2.1V151.4z"/>
	<path id="r14C19" fill="#4C2C6E" d="M152.7,151.4h4.3v4.3h-4.3V151.4z"/>
	<path id="r14C24" fill="#4C2C6E" d="M173.9,151.4h2.1c1.2,0,2.1,1,2.1,2.1v2.1h-4.3V151.4z"/>
	<path id="r14C25" fill="#4C2C6E" d="M178.1,151.4h4.3v2.1c0,1.2-1,2.1-2.1,2.1l0,0c-1.2,0-2.1-1-2.1-2.1V151.4z"/>
	<path id="r14C26" fill="#4C2C6E" d="M184.5,151.4L184.5,151.4c1.2,0,2.1,1,2.1,2.1v2.1h-4.3v-2.1
		C182.3,152.4,183.3,151.4,184.5,151.4z"/>
	<path id="r14C27" fill="#4C2C6E" d="M186.6,151.4h4.3v4.3h-2.1c-1.2,0-2.1-1-2.1-2.1V151.4z"/>
	<path id="r15C0" fill="#4C2C6E" d="M72.3,155.7h2.1c1.2,0,2.1,1,2.1,2.1l0,0c0,1.2-1,2.1-2.1,2.1h-2.1V155.7z"/>
	<path id="r15C1" fill="#4C2C6E" d="M76.5,155.7h4.3v4.3h-4.3V155.7z"/>
	<path id="r15C3" fill="#4C2C6E" d="M85,155.7h4.3v4.3H85V155.7z"/>
	<path id="r15C4" fill="#4C2C6E" d="M91.4,155.7h2.1v4.3h-4.3v-2.1C89.2,156.6,90.2,155.7,91.4,155.7z"/>
	<path id="r15C8" fill="#4C2C6E" d="M106.2,155.7h4.3v4.3h-4.3V155.7z"/>
	<path id="r15C9" fill="#4C2C6E" d="M112.5,155.7h2.1v4.3h-2.1c-1.2,0-2.1-1-2.1-2.1l0,0C110.4,156.6,111.3,155.7,112.5,155.7z"/>
	<path id="r15C13" fill="#4C2C6E" d="M127.3,155.7h4.3v4.3h-4.3V155.7z"/>
	<path id="r15C15" fill="#4C2C6E" d="M135.8,155.7h2.1c1.2,0,2.1,1,2.1,2.1v2.1h-4.3V155.7z"/>
	<path id="r15C16" fill="#4C2C6E" d="M142.2,155.7h2.1v4.3h-2.1c-1.2,0-2.1-1-2.1-2.1l0,0C140,156.6,141,155.7,142.2,155.7z"/>
	<path id="r15C18" fill="#4C2C6E" d="M148.5,155.7h4.3v4.3h-4.3V155.7z"/>
	<path id="r15C20" fill="#4C2C6E" d="M156.9,155.7h4.3v4.3h-4.3V155.7z"/>
	<path id="r15C23" fill="#4C2C6E" d="M169.6,155.7h2.1c1.2,0,2.1,1,2.1,2.1c0,0,0,0,0,0v2.1h-4.3V155.7z"/>
	<path id="r15C24" fill="#4C2C6E" d="M173.9,155.7h4.3v4.3H176c-1.2,0-2.1-1-2.1-2.1c0,0,0,0,0,0V155.7z"/>
	<path id="r15C26" fill="#4C2C6E" d="M182.3,155.7h4.3v4.3h-4.3V155.7z"/>
	<path id="r15C28" fill="#4C2C6E" d="M190.8,155.7h4.3v4.3h-4.3V155.7z"/>
	<path id="r15C30" fill="#4C2C6E" d="M199.3,155.7h4.3v4.3h-4.3V155.7z"/>
	<path id="r15C32" fill="#4C2C6E" d="M207.7,155.7h4.3v4.3h-4.3V155.7z"/>
	<path id="r16C1" fill="#4C2C6E" d="M76.5,159.9h4.3v4.3h-4.3V159.9z"/>
	<path id="r16C3" fill="#4C2C6E" d="M85,159.9h4.3v4.3H85V159.9z"/>
	<path id="r16C4" fill="#4C2C6E" d="M89.2,159.9h4.3v4.3h-2.1c-1.2,0-2.1-1-2.1-2.1V159.9z"/>
	<path id="r16C6" fill="#4C2C6E" d="M97.7,159.9h2.1c1.2,0,2.1,1,2.1,2.1l0,0c0,1.2-1,2.1-2.1,2.1h-2.1V159.9z"/>
	<path id="r16C7" fill="#4C2C6E" d="M104.1,159.9L104.1,159.9c1.2,0,2.1,1,2.1,2.1l0,0c0,1.2-1,2.1-2.1,2.1l0,0
		c-1.2,0-2.1-1-2.1-2.1l0,0C101.9,160.9,102.9,159.9,104.1,159.9z"/>
	<path id="r16C8" fill="#4C2C6E" d="M106.2,159.9h4.3v4.3h-2.1c-1.2,0-2.1-1-2.1-2.1V159.9z"/>
	<path id="r16C11" fill="#4C2C6E" d="M118.9,159.9h4.3v4.3h-4.3V159.9z"/>
	<path id="r16C15" fill="#4C2C6E" d="M135.8,159.9h4.3v4.3h-4.3V159.9z"/>
	<path id="r16C17" fill="#4C2C6E" d="M144.3,159.9h4.3v4.3h-4.3V159.9z"/>
	<path id="r16C23" fill="#4C2C6E" d="M169.6,159.9h4.3v4.3h-4.3V159.9z"/>
	<path id="r16C25" fill="#4C2C6E" d="M178.1,159.9h2.1c1.2,0,2.1,1,2.1,2.1l0,0c0,1.2-1,2.1-2.1,2.1h-2.1V159.9z"/>
	<path id="r16C26" fill="#4C2C6E" d="M182.3,159.9h4.3v4.3h-4.3V159.9z"/>
	<path id="r16C27" fill="#4C2C6E" d="M188.7,159.9L188.7,159.9c1.2,0,2.1,1,2.1,2.1v2.1h-4.3V162
		C186.6,160.9,187.5,159.9,188.7,159.9z"/>
	<path id="r16C28" fill="#4C2C6E" d="M190.8,159.9h4.3v4.3h-4.3V159.9z"/>
	<path id="r16C29" fill="#4C2C6E" d="M197.2,159.9h2.1v4.3H195V162C195,160.9,196,159.9,197.2,159.9z"/>
	<path id="r16C32" fill="#4C2C6E" d="M207.7,159.9h4.3v4.3h-4.3V159.9z"/>
	<path id="r17C3" fill="#4C2C6E" d="M85,164.1h4.3v4.3H85V164.1z"/>
	<path id="r17C9" fill="#4C2C6E" d="M110.4,164.1h4.3v4.3h-4.3V164.1z"/>
	<path id="r17C16" fill="#4C2C6E" d="M140,164.1h2.1c1.2,0,2.1,1,2.1,2.1l0,0c0,1.2-1,2.1-2.1,2.1H140V164.1z"/>
	<path id="r17C17" fill="#4C2C6E" d="M144.3,164.1h4.3v4.3h-4.3V164.1z"/>
	<path id="r17C22" fill="#4C2C6E" d="M165.4,164.1h4.3v4.3h-4.3V164.1z"/>
	<path id="r17C24" fill="#4C2C6E" d="M173.9,164.1h4.3v4.3h-4.3V164.1z"/>
	<path id="r17C26" fill="#4C2C6E" d="M182.3,164.1h4.3v4.3h-4.3V164.1z"/>
	<path id="r17C27" fill="#4C2C6E" d="M186.6,164.1h4.3v2.1c0,1.2-1,2.1-2.1,2.1l0,0c-1.2,0-2.1-1-2.1-2.1V164.1z"/>
	<path id="r17C28" fill="#4C2C6E" d="M190.8,164.1h4.3v4.3h-4.3V164.1z"/>
	<path id="r17C29" fill="#4C2C6E" d="M195,164.1h4.3v4.3H195V164.1z"/>
	<path id="r17C32" fill="#4C2C6E" d="M207.7,164.1h4.3v4.3h-4.3V164.1z"/>
	<path id="r18C0" fill="#4C2C6E" d="M72.3,168.4h4.3v4.3h-4.3V168.4z"/>
	<path id="r18C4" fill="#4C2C6E" d="M89.2,168.4h2.1c1.2,0,2.1,1,2.1,2.1l0,0v2.1h-4.3V168.4z"/>
	<path id="r18C5" fill="#4C2C6E" d="M95.6,168.4L95.6,168.4c1.2,0,2.1,1,2.1,2.1l0,0c0,1.2-1,2.1-2.1,2.1l0,0c-1.2,0-2.1-1-2.1-2.1
		l0,0l0,0C93.5,169.3,94.4,168.4,95.6,168.4L95.6,168.4z"/>
	<path id="r18C6" fill="#4C2C6E" d="M99.8,168.4h2.1v4.3h-2.1c-1.2,0-2.1-1-2.1-2.1l0,0l0,0C97.7,169.3,98.7,168.4,99.8,168.4
		L99.8,168.4z"/>
	<path id="r18C8" fill="#4C2C6E" d="M106.2,168.4h2.1c1.2,0,2.1,1,2.1,2.1l0,0c0,1.2-1,2.1-2.1,2.1h-2.1V168.4z"/>
	<path id="r18C9" fill="#4C2C6E" d="M110.4,168.4h4.3v4.3h-2.1c-1.2,0-2.1-1-2.1-2.1V168.4z"/>
	<path id="r18C11" fill="#4C2C6E" d="M118.9,168.4h2.1c1.2,0,2.1,1,2.1,2.1l0,0c0,1.2-1,2.1-2.1,2.1h-2.1V168.4z"/>
	<path id="r18C12" fill="#4C2C6E" d="M125.2,168.4L125.2,168.4c1.2,0,2.1,1,2.1,2.1v2.1h-4.3v-2.1
		C123.1,169.3,124,168.4,125.2,168.4C125.2,168.4,125.2,168.4,125.2,168.4z"/>
	<path id="r18C13" fill="#4C2C6E" d="M129.5,168.4L129.5,168.4c1.2,0,2.1,1,2.1,2.1l0,0c0,1.2-1,2.1-2.1,2.1l0,0
		c-1.2,0-2.1-1-2.1-2.1l0,0C127.3,169.3,128.3,168.4,129.5,168.4z"/>
	<path id="r18C14" fill="#4C2C6E" d="M133.7,168.4h2.1v4.3h-4.3v-2.1C131.6,169.3,132.5,168.4,133.7,168.4z"/>
	<path id="r18C17" fill="#4C2C6E" d="M144.3,168.4h4.3v2.1c0,1.2-1,2.1-2.1,2.1h-2.1V168.4z"/>
	<path id="r18C18" fill="#4C2C6E" d="M150.6,168.4L150.6,168.4c1.2,0,2.1,1,2.1,2.1l0,0c0,1.2-1,2.1-2.1,2.1l0,0
		c-1.2,0-2.1-1-2.1-2.1l0,0C148.5,169.3,149.4,168.4,150.6,168.4z"/>
	<path id="r18C19" fill="#4C2C6E" d="M154.9,168.4L154.9,168.4c1.2,0,2.1,1,2.1,2.1l0,0c0,1.2-1,2.1-2.1,2.1l0,0
		c-1.2,0-2.1-1-2.1-2.1l0,0C152.7,169.3,153.7,168.4,154.9,168.4z"/>
	<path id="r18C20" fill="#4C2C6E" d="M159.1,168.4L159.1,168.4c1.2,0,2.1,1,2.1,2.1v2.1h-4.3v-2.1
		C156.9,169.3,157.9,168.4,159.1,168.4z"/>
	<path id="r18C21" fill="#4C2C6E" d="M163.3,168.4h2.1v4.3h-2.1c-1.2,0-2.1-1-2.1-2.1l0,0C161.2,169.3,162.1,168.4,163.3,168.4z"/>
	<path id="r18C23" fill="#4C2C6E" d="M169.6,168.4h4.3v4.3h-4.3V168.4z"/>
	<path id="r18C25" fill="#4C2C6E" d="M178.1,168.4h2.1c1.2,0,2.1,1,2.1,2.1l0,0c0,1.2-1,2.1-2.1,2.1h-2.1V168.4z"/>
	<path id="r18C26" fill="#4C2C6E" d="M182.3,168.4h4.3v4.3h-4.3V168.4z"/>
	<path id="r18C28" fill="#4C2C6E" d="M190.8,168.4h4.3v4.3h-4.3V168.4z"/>
	<path id="r18C29" fill="#4C2C6E" d="M195,168.4h4.3v4.3H195V168.4z"/>
	<path id="r18C30" fill="#4C2C6E" d="M201.4,168.4h2.1v4.3h-4.3v-2.1C199.3,169.3,200.2,168.4,201.4,168.4z"/>
	<path id="r18C32" fill="#4C2C6E" d="M207.7,168.4h4.3v4.3h-4.3V168.4z"/>
	<path id="r19C0" fill="#4C2C6E" d="M72.3,172.6h4.3v2.1c0,1.2-1,2.1-2.1,2.1h-2.1V172.6z"/>
	<path id="r19C1" fill="#4C2C6E" d="M78.7,172.6h2.1v4.3h-4.3v-2.1C76.5,173.6,77.5,172.6,78.7,172.6z"/>
	<path id="r19C3" fill="#4C2C6E" d="M85,172.6h2.1c1.2,0,2.1,1,2.1,2.1v2.1H85V172.6z"/>
	<path id="r19C4" fill="#4C2C6E" d="M89.2,172.6h4.3v4.3h-2.1c-1.2,0-2.1-1-2.1-2.1V172.6z"/>
	<path id="r19C7" fill="#4C2C6E" d="M101.9,172.6h4.3v4.3h-4.3V172.6z"/>
	<path id="r19C10" fill="#4C2C6E" d="M114.6,172.6h4.3v4.3h-4.3V172.6z"/>
	<path id="r19C12" fill="#4C2C6E" d="M123.1,172.6h4.3v4.3h-4.3V172.6z"/>
	<path id="r19C14" fill="#4C2C6E" d="M131.6,172.6h4.3v2.1c0,1.2-1,2.1-2.1,2.1h-2.1V172.6z"/>
	<path id="r19C15" fill="#4C2C6E" d="M137.9,172.6h2.1v4.3h-2.1c-1.2,0-2.1-1-2.1-2.1l0,0C135.8,173.6,136.7,172.6,137.9,172.6z"/>
	<path id="r19C20" fill="#4C2C6E" d="M156.9,172.6h4.3v4.3h-4.3V172.6z"/>
	<path id="r19C22" fill="#4C2C6E" d="M165.4,172.6h2.1c1.2,0,2.1,1,2.1,2.1l0,0l0,0c0,1.2-1,2.1-2.1,2.1h0h-2.1V172.6z"/>
	<path id="r19C23" fill="#4C2C6E" d="M169.6,172.6h4.3v2.1c0,1.2-1,2.1-2.1,2.1l0,0l0,0c-1.2,0-2.1-1-2.1-2.1V172.6z"/>
	<path id="r19C24" fill="#4C2C6E" d="M176,172.6h2.1v4.3H176c-1.2,0-2.1-1-2.1-2.1v0l0,0C173.9,173.6,174.8,172.6,176,172.6
		L176,172.6z"/>
	<path id="r19C26" fill="#4C2C6E" d="M182.3,172.6h4.3v4.3h-4.3V172.6z"/>
	<path id="r19C28" fill="#4C2C6E" d="M190.8,172.6h4.3v2.1c0,1.2-1,2.1-2.1,2.1h-2.1V172.6z"/>
	<path id="r19C29" fill="#4C2C6E" d="M195,172.6h4.3v4.3H195V172.6z"/>
	<path id="r19C30" fill="#4C2C6E" d="M199.3,172.6h4.3v4.3h-2.1c-1.2,0-2.1-1-2.1-2.1V172.6z"/>
	<path id="r20C1" fill="#4C2C6E" d="M76.5,176.8h4.3v4.3h-4.3V176.8z"/>
	<path id="r20C2" fill="#4C2C6E" d="M82.9,176.8L82.9,176.8c1.2,0,2.1,1,2.1,2.1l0,0c0,1.2-1,2.1-2.1,2.1l0,0c-1.2,0-2.1-1-2.1-2.1
		l0,0C80.8,177.8,81.7,176.8,82.9,176.8z"/>
	<path id="r20C3" fill="#4C2C6E" d="M85,176.8h4.3v4.3h-2.1c-1.2,0-2.1-1-2.1-2.1V176.8z"/>
	<path id="r20C5" fill="#4C2C6E" d="M93.5,176.8h2.1c1.2,0,2.1,1,2.1,2.1l0,0c0,1.2-1,2.1-2.1,2.1h-2.1V176.8z"/>
	<path id="r20C6" fill="#4C2C6E" d="M99.8,176.8h2.1v4.3h-2.1c-1.2,0-2.1-1-2.1-2.1l0,0l0,0C97.7,177.8,98.7,176.8,99.8,176.8
		L99.8,176.8z"/>
	<path id="r20C8" fill="#4C2C6E" d="M106.2,176.8h4.3v4.3h-4.3V176.8z"/>
	<path id="r20C12" fill="#4C2C6E" d="M123.1,176.8h4.3v4.3h-4.3V176.8z"/>
	<path id="r20C13" fill="#4C2C6E" d="M129.5,176.8h2.1v4.3h-2.1c-1.2,0-2.1-1-2.1-2.1l0,0C127.3,177.8,128.3,176.8,129.5,176.8z"/>
	<path id="r20C16" fill="#4C2C6E" d="M140,176.8h4.3v4.3H140V176.8z"/>
	<path id="r20C19" fill="#4C2C6E" d="M152.7,176.8h2.1c1.2,0,2.1,1,2.1,2.1l0,0c0,1.2-1,2.1-2.1,2.1h-2.1V176.8z"/>
	<path id="r20C20" fill="#4C2C6E" d="M156.9,176.8h4.3v4.3h-2.1c-1.2,0-2.1-1-2.1-2.1V176.8z"/>
	<path id="r20C27" fill="#4C2C6E" d="M186.6,176.8h4.3v4.3h-4.3V176.8z"/>
	<path id="r20C29" fill="#4C2C6E" d="M195,176.8h4.3v4.3H195V176.8z"/>
	<path id="r20C31" fill="#4C2C6E" d="M203.5,176.8h4.3v4.3h-4.3V176.8z"/>
	<path id="r21C0" fill="#4C2C6E" d="M72.3,181.1h2.1c1.2,0,2.1,1,2.1,2.1v2.1h-4.3V181.1z"/>
	<path id="r21C1" fill="#4C2C6E" d="M76.5,181.1h4.3v4.3h-2.1c-1.2,0-2.1-1-2.1-2.1V181.1z"/>
	<path id="r21C7" fill="#4C2C6E" d="M101.9,181.1h2.1c1.2,0,2.1,1,2.1,2.1v2.1h-4.3V181.1z"/>
	<path id="r21C8" fill="#4C2C6E" d="M106.2,181.1h4.3v4.3h-2.1c-1.2,0-2.1-1-2.1-2.1V181.1z"/>
	<path id="r21C11" fill="#4C2C6E" d="M118.9,181.1h2.1c1.2,0,2.1,1,2.1,2.1v2.1h-4.3V181.1z"/>
	<path id="r21C12" fill="#4C2C6E" d="M123.1,181.1h4.3v4.3h-4.3V181.1z"/>
	<path id="r21C14" fill="#4C2C6E" d="M131.6,181.1h2.1c1.2,0,2.1,1,2.1,2.1l0,0c0,1.2-1,2.1-2.1,2.1h-2.1V181.1z"/>
	<path id="r21C15" fill="#4C2C6E" d="M137.9,181.1h2.1v4.3h-2.1c-1.2,0-2.1-1-2.1-2.1l0,0C135.8,182,136.7,181.1,137.9,181.1z"/>
	<path id="r21C17" fill="#4C2C6E" d="M144.3,181.1h4.3v4.3h-4.3V181.1z"/>
	<path id="r21C21" fill="#4C2C6E" d="M161.2,181.1h2.1c1.2,0,2.1,1,2.1,2.1l0,0c0,1.2-1,2.1-2.1,2.1h-2.1V181.1z"/>
	<path id="r21C22" fill="#4C2C6E" d="M167.5,181.1L167.5,181.1c1.2,0,2.1,1,2.1,2.1l0,0v2.1h-4.3v-2.1
		C165.4,182,166.4,181.1,167.5,181.1z"/>
	<path id="r21C23" fill="#4C2C6E" d="M171.8,181.1L171.8,181.1c1.2,0,2.1,1,2.1,2.1l0,0v2.1h-4.3v-2.1
		C169.6,182,170.6,181.1,171.8,181.1z"/>
	<path id="r21C24" fill="#4C2C6E" d="M176,181.1L176,181.1c1.2,0,2.1,1,2.1,2.1v2.1h-4.3v-2.1C173.9,182,174.8,181.1,176,181.1
		L176,181.1z"/>
	<path id="r21C25" fill="#4C2C6E" d="M180.2,181.1L180.2,181.1c1.2,0,2.1,1,2.1,2.1l0,0c0,1.2-1,2.1-2.1,2.1l0,0
		c-1.2,0-2.1-1-2.1-2.1l0,0C178.1,182,179.1,181.1,180.2,181.1z"/>
	<path id="r21C26" fill="#4C2C6E" d="M184.5,181.1h2.1v4.3h-4.3v-2.1C182.3,182,183.3,181.1,184.5,181.1z"/>
	<path id="r21C28" fill="#4C2C6E" d="M190.8,181.1h4.3v4.3h-4.3V181.1z"/>
	<path id="r21C30" fill="#4C2C6E" d="M199.3,181.1h4.3v4.3h-4.3V181.1z"/>
	<path id="r22C0" fill="#4C2C6E" d="M72.3,185.3h4.3v4.3h-4.3V185.3z"/>
	<path id="r22C2" fill="#4C2C6E" d="M80.8,185.3h2.1c1.2,0,2.1,1,2.1,2.1l0,0c0,1.2-1,2.1-2.1,2.1c0,0,0,0,0,0h-2.1V185.3z"/>
	<path id="r22C3" fill="#4C2C6E" d="M87.1,185.3L87.1,185.3c1.2,0,2.1,1,2.1,2.1l0,0c0,1.2-1,2.1-2.1,2.1c0,0,0,0,0,0l0,0
		c-1.2,0-2.1-1-2.1-2.1v0l0,0C85,186.3,86,185.3,87.1,185.3z"/>
	<path id="r22C4" fill="#4C2C6E" d="M91.4,185.3h2.1v4.3h-4.3v-2.1C89.2,186.3,90.2,185.3,91.4,185.3z"/>
	<path id="r22C6" fill="#4C2C6E" d="M97.7,185.3h2.1c1.2,0,2.1,1,2.1,2.1l0,0c0,1.2-1,2.1-2.1,2.1c0,0,0,0,0,0h-2.1V185.3z"/>
	<path id="r22C7" fill="#4C2C6E" d="M101.9,185.3h4.3v4.3h-2.1c-1.2,0-2.1-1-2.1-2.1v0V185.3z"/>
	<path id="r22C9" fill="#4C2C6E" d="M110.4,185.3h4.3v4.3h-4.3V185.3z"/>
	<path id="r22C11" fill="#4C2C6E" d="M118.9,185.3h4.3v4.3h-4.3V185.3z"/>
	<path id="r22C12" fill="#4C2C6E" d="M123.1,185.3h4.3v2.1c0,1.2-1,2.1-2.1,2.1c0,0,0,0,0,0l0,0c-1.2,0-2.1-1-2.1-2.1v0V185.3z"/>
	<path id="r22C13" fill="#4C2C6E" d="M129.5,185.3h2.1v4.3h-4.3v-2.1C127.3,186.3,128.3,185.3,129.5,185.3z"/>
	<path id="r22C16" fill="#4C2C6E" d="M140,185.3h2.1c1.2,0,2.1,1,2.1,2.1v2.1H140V185.3z"/>
	<path id="r22C17" fill="#4C2C6E" d="M144.3,185.3h4.3v4.3h-4.3V185.3z"/>
	<path id="r22C22" fill="#4C2C6E" d="M165.4,185.3h4.3v4.3h-4.3V185.3z"/>
	<path id="r22C23" fill="#4C2C6E" d="M169.6,185.3h4.3v4.3h-4.3V185.3z"/>
	<path id="r22C24" fill="#4C2C6E" d="M173.9,185.3h4.3v4.3h-4.3V185.3z"/>
	<path id="r22C26" fill="#4C2C6E" d="M182.3,185.3h4.3v4.3h-4.3V185.3z"/>
	<path id="r22C29" fill="#4C2C6E" d="M195,185.3h2.1c1.2,0,2.1,1,2.1,2.1l0,0c0,1.2-1,2.1-2.1,2.1h0H195V185.3z"/>
	<path id="r22C30" fill="#4C2C6E" d="M199.3,185.3h4.3v4.3h-4.3V185.3z"/>
	<path id="r22C31" fill="#4C2C6E" d="M205.6,185.3L205.6,185.3c1.2,0,2.1,1,2.1,2.1v2.1h-4.3v-2.1
		C203.5,186.3,204.5,185.3,205.6,185.3z"/>
	<path id="r22C32" fill="#4C2C6E" d="M209.9,185.3h2.1v4.3h-2.1c-1.2,0-2.1-1-2.1-2.1v0l0,0C207.7,186.3,208.7,185.3,209.9,185.3z"
		/>
	<path id="r23C0" fill="#4C2C6E" d="M72.3,189.5h4.3v4.3h-4.3V189.5z"/>
	<path id="r23C4" fill="#4C2C6E" d="M89.2,189.5h4.3v4.3h-4.3V189.5z"/>
	<path id="r23C8" fill="#4C2C6E" d="M106.2,189.5h2.1c1.2,0,2.1,1,2.1,2.1v2.1h-4.3V189.5z"/>
	<path id="r23C9" fill="#4C2C6E" d="M110.4,189.5h4.3v4.3h-4.3V189.5z"/>
	<path id="r23C10" fill="#4C2C6E" d="M116.8,189.5L116.8,189.5c1.2,0,2.1,1,2.1,2.1l0,0l0,0c0,1.2-1,2.1-2.1,2.1c0,0,0,0,0,0l0,0
		c-1.2,0-2.1-1-2.1-2.1v0l0,0C114.6,190.5,115.6,189.5,116.8,189.5z"/>
	<path id="r23C11" fill="#4C2C6E" d="M118.9,189.5h4.3v4.3h-4.3V189.5z"/>
	<path id="r23C13" fill="#4C2C6E" d="M127.3,189.5h4.3v2.1c0,1.2-1,2.1-2.1,2.1c0,0,0,0,0,0h-2.1V189.5z"/>
	<path id="r23C14" fill="#4C2C6E" d="M133.7,189.5h2.1v4.3h-2.1c-1.2,0-2.1-1-2.1-2.1v0l0,0C131.6,190.5,132.5,189.5,133.7,189.5z"
		/>
	<path id="r23C16" fill="#4C2C6E" d="M140,189.5h4.3v4.3H140V189.5z"/>
	<path id="r23C17" fill="#4C2C6E" d="M144.3,189.5h4.3v4.3h-4.3V189.5z"/>
	<path id="r23C19" fill="#4C2C6E" d="M152.7,189.5h2.1c1.2,0,2.1,1,2.1,2.1l0,0c0,1.2-1,2.1-2.1,2.1l0,0h-2.1V189.5z"/>
	<path id="r23C20" fill="#4C2C6E" d="M159.1,189.5h2.1v4.3h-4.3v-2.1C156.9,190.5,157.9,189.5,159.1,189.5z"/>
	<path id="r23C22" fill="#4C2C6E" d="M165.4,189.5h4.3v2.1c0,1.2-1,2.1-2.1,2.1c0,0,0,0,0,0h-2.1V189.5z"/>
	<path id="r23C23" fill="#4C2C6E" d="M169.6,189.5h4.3v2.1c0,1.2-1,2.1-2.1,2.1c0,0,0,0,0,0l0,0c-1.2,0-2.1-1-2.1-2.1v0V189.5z"/>
	<path id="r23C24" fill="#4C2C6E" d="M173.9,189.5h4.3v4.3h-4.3V189.5z"/>
	<path id="r23C30" fill="#4C2C6E" d="M199.3,189.5h4.3v2.1c0,1.2-1,2.1-2.1,2.1l0,0h-2.1V189.5z"/>
	<path id="r23C31" fill="#4C2C6E" d="M203.5,189.5h4.3v4.3h-4.3V189.5z"/>
	<path id="r24C0" fill="#4C2C6E" d="M72.3,193.8h4.3v2.1c0,1.2-1,2.1-2.1,2.1h-2.1V193.8z"/>
	<path id="r24C1" fill="#4C2C6E" d="M78.7,193.8h2.1v4.3h-2.1c-1.2,0-2.1-1-2.1-2.1l0,0C76.5,194.7,77.5,193.8,78.7,193.8
		C78.7,193.8,78.7,193.8,78.7,193.8z"/>
	<path id="r24C3" fill="#4C2C6E" d="M85,193.8h2.1c1.2,0,2.1,1,2.1,2.1v0l0,0c0,1.2-1,2.1-2.1,2.1H85V193.8z"/>
	<path id="r24C4" fill="#4C2C6E" d="M89.2,193.8h4.3v4.3h-2.1c-1.2,0-2.1-1-2.1-2.1V193.8z"/>
	<path id="r24C6" fill="#4C2C6E" d="M97.7,193.8h4.3v4.3h-4.3V193.8z"/>
	<path id="r24C8" fill="#4C2C6E" d="M106.2,193.8h4.3v4.3h-4.3V193.8z"/>
	<path id="r24C9" fill="#4C2C6E" d="M110.4,193.8h4.3v4.3h-2.1c-1.2,0-2.1-1-2.1-2.1V193.8z"/>
	<path id="r24C11" fill="#4C2C6E" d="M118.9,193.8h4.3v4.3h-4.3V193.8z"/>
	<path id="r24C15" fill="#4C2C6E" d="M135.8,193.8h2.1c1.2,0,2.1,1,2.1,2.1v0l0,0c0,1.2-1,2.1-2.1,2.1h-2.1V193.8z"/>
	<path id="r24C16" fill="#4C2C6E" d="M140,193.8h4.3v2.1c0,1.2-1,2.1-2.1,2.1l0,0c-1.2,0-2.1-1-2.1-2.1V193.8z"/>
	<path id="r24C17" fill="#4C2C6E" d="M144.3,193.8h4.3v4.3h-4.3V193.8z"/>
	<path id="r24C18" fill="#4C2C6E" d="M150.6,193.8h2.1v4.3h-2.1c-1.2,0-2.1-1-2.1-2.1l0,0C148.5,194.7,149.4,193.8,150.6,193.8
		L150.6,193.8z"/>
	<path id="r24C20" fill="#4C2C6E" d="M156.9,193.8h4.3v4.3h-4.3V193.8z"/>
	<path id="r24C24" fill="#4C2C6E" d="M173.9,193.8h4.3v4.3h-4.3V193.8z"/>
	<path id="r24C25" fill="#4C2C6E" d="M180.2,193.8L180.2,193.8c1.2,0,2.1,1,2.1,2.1v0l0,0c0,1.2-1,2.1-2.1,2.1l0,0
		c-1.2,0-2.1-1-2.1-2.1l0,0C178.1,194.7,179.1,193.8,180.2,193.8L180.2,193.8z"/>
	<path id="r24C26" fill="#4C2C6E" d="M184.5,193.8L184.5,193.8c1.2,0,2.1,1,2.1,2.1v0l0,0c0,1.2-1,2.1-2.1,2.1l0,0
		c-1.2,0-2.1-1-2.1-2.1l0,0C182.3,194.7,183.3,193.8,184.5,193.8L184.5,193.8z"/>
	<path id="r24C27" fill="#4C2C6E" d="M188.7,193.8L188.7,193.8c1.2,0,2.1,1,2.1,2.1v0l0,0c0,1.2-1,2.1-2.1,2.1l0,0
		c-1.2,0-2.1-1-2.1-2.1l0,0C186.6,194.7,187.5,193.8,188.7,193.8L188.7,193.8z"/>
	<path id="r24C28" fill="#4C2C6E" d="M192.9,193.8L192.9,193.8c1.2,0,2.1,1,2.1,2.1v0v2.1h-4.3v-2.1
		C190.8,194.7,191.8,193.8,192.9,193.8L192.9,193.8z"/>
	<path id="r24C29" fill="#4C2C6E" d="M197.2,193.8h2.1v4.3h-2.1c-1.2,0-2.1-1-2.1-2.1l0,0C195,194.7,196,193.8,197.2,193.8
		L197.2,193.8z"/>
	<path id="r24C31" fill="#4C2C6E" d="M203.5,193.8h4.3v4.3h-4.3V193.8z"/>
	<path id="r25C8" fill="#4C2C6E" d="M106.2,198h4.3v4.3h-4.3V198z"/>
	<path id="r25C10" fill="#4C2C6E" d="M114.6,198h4.3v4.3h-4.3V198z"/>
	<path id="r25C12" fill="#4C2C6E" d="M123.1,198h2.1c1.2,0,2.1,1,2.1,2.1l0,0c0,1.2-1,2.1-2.1,2.1h-2.1V198z"/>
	<path id="r25C13" fill="#4C2C6E" d="M129.5,198h2.1v4.3h-4.3v-2.1C127.3,199,128.3,198,129.5,198z"/>
	<path id="r25C17" fill="#4C2C6E" d="M144.3,198h4.3v4.3h-4.3V198z"/>
	<path id="r25C20" fill="#4C2C6E" d="M156.9,198h4.3v4.3h-4.3V198z"/>
	<path id="r25C24" fill="#4C2C6E" d="M173.9,198h4.3v4.3h-4.3V198z"/>
	<path id="r25C28" fill="#4C2C6E" d="M190.8,198h4.3v4.3h-4.3V198z"/>
	<path id="r25C30" fill="#4C2C6E" d="M199.3,198h2.1c1.2,0,2.1,1,2.1,2.1v2.1h-4.3V198z"/>
	<path id="r25C31" fill="#4C2C6E" d="M203.5,198h4.3v4.3h-2.1c-1.2,0-2.1-1-2.1-2.1V198z"/>
	<path id="r26C8" fill="#4C2C6E" d="M106.2,202.2h4.3v4.3h-4.3V202.2z"/>
	<path id="r26C13" fill="#4C2C6E" d="M127.3,202.2h4.3v4.3h-4.3V202.2z"/>
	<path id="r26C16" fill="#4C2C6E" d="M140,202.2h2.1c1.2,0,2.1,1,2.1,2.1v2.1H140V202.2z"/>
	<path id="r26C17" fill="#4C2C6E" d="M144.3,202.2h4.3v4.3h-2.1c-1.2,0-2.1-1-2.1-2.1V202.2z"/>
	<path id="r26C20" fill="#4C2C6E" d="M156.9,202.2h4.3v2.1c0,1.2-1,2.1-2.1,2.1h-2.1V202.2z"/>
	<path id="r26C21" fill="#4C2C6E" d="M163.3,202.2L163.3,202.2c1.2,0,2.1,1,2.1,2.1l0,0c0,1.2-1,2.1-2.1,2.1l0,0
		c-1.2,0-2.1-1-2.1-2.1l0,0C161.2,203.2,162.1,202.2,163.3,202.2z"/>
	<path id="r26C22" fill="#4C2C6E" d="M167.5,202.2L167.5,202.2c1.2,0,2.1,1,2.1,2.1v0l0,0c0,1.2-1,2.1-2.1,2.1h0l0,0
		c-1.2,0-2.1-1-2.1-2.1l0,0C165.4,203.2,166.4,202.2,167.5,202.2z"/>
	<path id="r26C23" fill="#4C2C6E" d="M171.8,202.2L171.8,202.2c1.2,0,2.1,1,2.1,2.1v0v2.1h-4.3v-2.1
		C169.6,203.2,170.6,202.2,171.8,202.2z"/>
	<path id="r26C24" fill="#4C2C6E" d="M173.9,202.2h4.3v4.3h-4.3V202.2z"/>
	<path id="r26C26" fill="#4C2C6E" d="M182.3,202.2h4.3v4.3h-4.3V202.2z"/>
	<path id="r26C28" fill="#4C2C6E" d="M190.8,202.2h4.3v4.3h-4.3V202.2z"/>
	<path id="r26C29" fill="#4C2C6E" d="M197.2,202.2L197.2,202.2c1.2,0,2.1,1,2.1,2.1v2.1H195v-2.1C195,203.2,196,202.2,197.2,202.2z"
		/>
	<path id="r26C30" fill="#4C2C6E" d="M199.3,202.2h4.3v4.3h-4.3V202.2z"/>
	<path id="r27C9" fill="#4C2C6E" d="M110.4,206.5h4.3v4.3h-4.3V206.5z"/>
	<path id="r27C14" fill="#4C2C6E" d="M131.6,206.5h2.1c1.2,0,2.1,1,2.1,2.1l0,0c0,1.2-1,2.1-2.1,2.1h-2.1V206.5z"/>
	<path id="r27C15" fill="#4C2C6E" d="M137.9,206.5L137.9,206.5c1.2,0,2.1,1,2.1,2.1l0,0c0,1.2-1,2.1-2.1,2.1l0,0
		c-1.2,0-2.1-1-2.1-2.1l0,0C135.8,207.4,136.7,206.5,137.9,206.5z"/>
	<path id="r27C16" fill="#4C2C6E" d="M140,206.5h4.3v4.3H140V206.5z"/>
	<path id="r27C19" fill="#4C2C6E" d="M152.7,206.5h4.3v4.3h-4.3V206.5z"/>
	<path id="r27C23" fill="#4C2C6E" d="M169.6,206.5h4.3v4.3h-4.3V206.5z"/>
	<path id="r27C24" fill="#4C2C6E" d="M173.9,206.5h4.3v4.3h-4.3V206.5z"/>
	<path id="r27C28" fill="#4C2C6E" d="M190.8,206.5h4.3v4.3h-4.3V206.5z"/>
	<path id="r27C29" fill="#4C2C6E" d="M195,206.5h4.3v4.3H195V206.5z"/>
	<path id="r27C30" fill="#4C2C6E" d="M199.3,206.5h4.3v2.1c0,1.2-1,2.1-2.1,2.1l0,0c-1.2,0-2.1-1-2.1-2.1V206.5z"/>
	<path id="r27C31" fill="#4C2C6E" d="M205.6,206.5h2.1v4.3h-4.3v-2.1C203.5,207.4,204.5,206.5,205.6,206.5z"/>
	<path id="r28C8" fill="#4C2C6E" d="M106.2,210.7h2.1c1.2,0,2.1,1,2.1,2.1v2.1h-4.3V210.7z"/>
	<path id="r28C9" fill="#4C2C6E" d="M110.4,210.7h4.3v4.3h-4.3V210.7z"/>
	<path id="r28C10" fill="#4C2C6E" d="M116.8,210.7h2.1v4.3h-2.1c-1.2,0-2.1-1-2.1-2.1l0,0C114.6,211.6,115.6,210.7,116.8,210.7z"/>
	<path id="r28C13" fill="#4C2C6E" d="M127.3,210.7h4.3v4.3h-4.3V210.7z"/>
	<path id="r28C16" fill="#4C2C6E" d="M140,210.7h4.3v4.3H140V210.7z"/>
	<path id="r28C18" fill="#4C2C6E" d="M148.5,210.7h4.3v4.3h-4.3V210.7z"/>
	<path id="r28C21" fill="#4C2C6E" d="M161.2,210.7h4.3v4.3h-4.3V210.7z"/>
	<path id="r28C23" fill="#4C2C6E" d="M169.6,210.7h4.3v2.1c0,1.2-1,2.1-2.1,2.1l0,0h-2.1V210.7z"/>
	<path id="r28C24" fill="#4C2C6E" d="M173.9,210.7h4.3v2.1c0,1.2-1,2.1-2.1,2.1l0,0c-1.2,0-2.1-1-2.1-2.1l0,0V210.7z"/>
	<path id="r28C25" fill="#4C2C6E" d="M180.2,210.7L180.2,210.7c1.2,0,2.1,1,2.1,2.1v2.1h-4.3v-2.1
		C178.1,211.6,179.1,210.7,180.2,210.7z"/>
	<path id="r28C26" fill="#4C2C6E" d="M184.5,210.7L184.5,210.7c1.2,0,2.1,1,2.1,2.1l0,0c0,1.2-1,2.1-2.1,2.1l0,0
		c-1.2,0-2.1-1-2.1-2.1l0,0C182.3,211.6,183.3,210.7,184.5,210.7z"/>
	<path id="r28C27" fill="#4C2C6E" d="M188.7,210.7L188.7,210.7c1.2,0,2.1,1,2.1,2.1v2.1h-4.3v-2.1
		C186.6,211.6,187.5,210.7,188.7,210.7z"/>
	<path id="r28C28" fill="#4C2C6E" d="M190.8,210.7h4.3v2.1c0,1.2-1,2.1-2.1,2.1l0,0c-1.2,0-2.1-1-2.1-2.1V210.7z"/>
	<path id="r28C29" fill="#4C2C6E" d="M195,210.7h4.3v4.3h-2.1c-1.2,0-2.1-1-2.1-2.1V210.7z"/>
	<path id="r28C31" fill="#4C2C6E" d="M203.5,210.7h4.3v4.3h-4.3V210.7z"/>
	<path id="r29C8" fill="#4C2C6E" d="M106.2,214.9h4.3v2.1c0,1.2-1,2.1-2.1,2.1h-2.1V214.9z"/>
	<path id="r29C9" fill="#4C2C6E" d="M110.4,214.9h4.3v4.3h-4.3V214.9z"/>
	<path id="r29C12" fill="#4C2C6E" d="M123.1,214.9h4.3v4.3h-4.3V214.9z"/>
	<path id="r29C14" fill="#4C2C6E" d="M131.6,214.9h4.3v4.3h-4.3V214.9z"/>
	<path id="r29C16" fill="#4C2C6E" d="M140,214.9h4.3v4.3H140V214.9z"/>
	<path id="r29C18" fill="#4C2C6E" d="M148.5,214.9h4.3v2.1c0,1.2-1,2.1-2.1,2.1h-2.1V214.9z"/>
	<path id="r29C19" fill="#4C2C6E" d="M154.9,214.9h2.1v4.3h-2.1c-1.2,0-2.1-1-2.1-2.1l0,0C152.7,215.9,153.7,214.9,154.9,214.9z"/>
	<path id="r29C25" fill="#4C2C6E" d="M178.1,214.9h4.3v4.3h-4.3V214.9z"/>
	<path id="r29C27" fill="#4C2C6E" d="M186.6,214.9h4.3v4.3h-4.3V214.9z"/>
	<path id="r29C32" fill="#4C2C6E" d="M207.7,214.9h4.3v4.3h-4.3V214.9z"/>
	<path id="r30C9" fill="#4C2C6E" d="M110.4,219.2h4.3v4.3h-4.3V219.2z"/>
	<path id="r30C17" fill="#4C2C6E" d="M144.3,219.2h4.3v4.3h-4.3V219.2z"/>
	<path id="r30C20" fill="#4C2C6E" d="M156.9,219.2h2.1c1.2,0,2.1,1,2.1,2.1v2.1h-4.3V219.2z"/>
	<path id="r30C21" fill="#4C2C6E" d="M163.3,219.2h2.1v4.3h-2.1c-1.2,0-2.1-1-2.1-2.1l0,0C161.2,220.1,162.1,219.2,163.3,219.2z"/>
	<path id="r30C28" fill="#4C2C6E" d="M190.8,219.2h4.3v4.3h-4.3V219.2z"/>
	<path id="r30C31" fill="#4C2C6E" d="M203.5,219.2h2.1c1.2,0,2.1,1,2.1,2.1v2.1h-4.3V219.2z"/>
	<path id="r30C32" fill="#4C2C6E" d="M207.7,219.2h4.3v4.3h-4.3V219.2z"/>
	<path id="r31C9" fill="#4C2C6E" d="M110.4,223.4h4.3v4.3h-4.3V223.4z"/>
	<path id="r31C11" fill="#4C2C6E" d="M118.9,223.4h4.3v4.3h-4.3V223.4z"/>
	<path id="r31C13" fill="#4C2C6E" d="M127.3,223.4h2.1c1.2,0,2.1,1,2.1,2.1l0,0c0,1.2-1,2.1-2.1,2.1h-2.1V223.4z"/>
	<path id="r31C14" fill="#4C2C6E" d="M133.7,223.4h2.1v4.3h-2.1c-1.2,0-2.1-1-2.1-2.1l0,0C131.6,224.3,132.5,223.4,133.7,223.4z"/>
	<path id="r31C17" fill="#4C2C6E" d="M144.3,223.4h4.3v4.3h-4.3V223.4z"/>
	<path id="r31C19" fill="#4C2C6E" d="M152.7,223.4h2.1c1.2,0,2.1,1,2.1,2.1v2.1h-4.3V223.4z"/>
	<path id="r31C20" fill="#4C2C6E" d="M156.9,223.4h4.3v4.3h-2.1c-1.2,0-2.1-1-2.1-2.1V223.4z"/>
	<path id="r31C22" fill="#4C2C6E" d="M165.4,223.4h2.1c1.2,0,2.1,1,2.1,2.1l0,0v2.1h-4.3V223.4z"/>
	<path id="r31C23" fill="#4C2C6E" d="M171.8,223.4h2.1v4.3h-4.3v-2.1C169.6,224.3,170.6,223.4,171.8,223.4z"/>
	<path id="r31C26" fill="#4C2C6E" d="M182.3,223.4h4.3v4.3h-4.3V223.4z"/>
	<path id="r31C30" fill="#4C2C6E" d="M199.3,223.4h2.1c1.2,0,2.1,1,2.1,2.1l0,0c0,1.2-1,2.1-2.1,2.1h-2.1V223.4z"/>
	<path id="r31C31" fill="#4C2C6E" d="M203.5,223.4h4.3v2.1c0,1.2-1,2.1-2.1,2.1l0,0c-1.2,0-2.1-1-2.1-2.1V223.4z"/>
	<path id="r31C32" fill="#4C2C6E" d="M207.7,223.4h4.3v4.3h-2.1c-1.2,0-2.1-1-2.1-2.1V223.4z"/>
	<path id="r32C9" fill="#4C2C6E" d="M110.4,227.6h4.3v4.3h-4.3V227.6z"/>
	<path id="r32C15" fill="#4C2C6E" d="M135.8,227.6h4.3v4.3h-4.3V227.6z"/>
	<path id="r32C17" fill="#4C2C6E" d="M144.3,227.6h4.3v4.3h-4.3V227.6z"/>
	<path id="r32C19" fill="#4C2C6E" d="M152.7,227.6h4.3v4.3h-4.3V227.6z"/>
	<path id="r32C21" fill="#4C2C6E" d="M161.2,227.6h2.1c1.2,0,2.1,1,2.1,2.1l0,0c0,1.2-1,2.1-2.1,2.1h-2.1V227.6z"/>
	<path id="r32C22" fill="#4C2C6E" d="M165.4,227.6h4.3v2.1c0,1.2-1,2.1-2.1,2.1h0l0,0c-1.2,0-2.1-1-2.1-2.1V227.6z"/>
	<path id="r32C23" fill="#4C2C6E" d="M169.6,227.6h4.3v2.1c0,1.2-1,2.1-2.1,2.1l0,0l0,0c-1.2,0-2.1-1-2.1-2.1V227.6z"/>
	<path id="r32C24" fill="#4C2C6E" d="M176,227.6h2.1v4.3H176c-1.2,0-2.1-1-2.1-2.1l0,0l0,0C173.9,228.6,174.8,227.6,176,227.6
		L176,227.6z"/>
	<path id="r32C28" fill="#4C2C6E" d="M190.8,227.6h2.1c1.2,0,2.1,1,2.1,2.1l0,0c0,1.2-1,2.1-2.1,2.1h-2.1V227.6z"/>
	<path id="r32C29" fill="#4C2C6E" d="M197.2,227.6h2.1v4.3h-2.1c-1.2,0-2.1-1-2.1-2.1l0,0C195,228.6,196,227.6,197.2,227.6z"/>
	<path id="outerEye" fill="#4C2C6E" d="M72.3,95.2v23.6c0,1.7,1.4,3,3,3h26.6V95.2c0-1.7-1.4-3-3-3H72.3V95.2z M97.7,117.6H79.6
		c-1.7,0-3-1.4-3-3V96.4h18.1c1.7,0,3,1.4,3,3V117.6z"/>
	<path id="outerEye_1_" fill="#4C2C6E" d="M72.3,205.3v26.6h26.6c1.7,0,3-1.4,3-3v-26.6H75.3C73.7,202.2,72.3,203.6,72.3,205.3z
		 M94.7,227.6H76.5v-18.1c0-1.7,1.4-3,3-3h18.1v18.1C97.7,226.3,96.3,227.6,94.7,227.6z"/>
	<path id="outerEye_2_" fill="#4C2C6E" d="M182.3,95.2v26.6h26.6c1.7,0,3-1.4,3-3V92.2h-26.6C183.7,92.2,182.3,93.5,182.3,95.2z
		 M204.7,117.6h-18.1V99.5c0-1.7,1.4-3,3-3h18.1v18.1C207.7,116.2,206.4,117.6,204.7,117.6z"/>
	<path id="innerEye" fill="#4C2C6E" d="M80.8,103.7v6.6c0,1.7,1.4,3,3,3h9.7v-9.7c0-1.7-1.4-3-3-3h-9.7V103.7z"/>
	<path id="innerEye_1_" fill="#4C2C6E" d="M190.8,103.7v9.7h9.7c1.7,0,3-1.4,3-3v-9.7h-9.7C192.2,100.7,190.8,102,190.8,103.7z"/>
	<path id="innerEye_2_" fill="#4C2C6E" d="M80.8,213.7v9.7h9.7c1.7,0,3-1.4,3-3v-9.7h-9.7C82.1,210.7,80.8,212.1,80.8,213.7z"/>
</g>
<text transform="matrix(1 0 0 1 88.3856 260.3375)" enable-background="new    "><tspan x="0" y="0" fill="#111111" font-family="'FZSEJW--GB1-0'" font-size="20px" letter-spacing="-2">扫码生成你的</tspan><tspan x="-18" y="24" fill="#111111" font-family="'FZSEJW--GB1-0'" font-size="20px" letter-spacing="-2">“清华制霸地图”</tspan></text>
</svg>
